<svg xmlns="http://www.w3.org/2000/svg" xmlns:xlink="http://www.w3.org/1999/xlink" id="body_1" preserveAspectRatio="xMinYMin meet" viewBox="0 0 1123 793"><defs><clipPath id="1"><path id="" clip-rule="evenodd" transform="matrix(1 0 0 1 0 0)" d="M0 595L0 -0.2755737L0 -0.2755737L842.485 -0.2755737L842.485 -0.2755737L842.485 595L842.485 595L0 595z" /></clipPath><clipPath id="2"><path id="" clip-rule="evenodd" transform="matrix(1 0 0 1 0 0)" d="M0 595L842.4 595L842.4 595L842.4 -0.2000122L842.4 -0.2000122L0 -0.2000122z" /></clipPath></defs><g transform="matrix(1.333333 0 0 1.333333 0 0)"><g clip-path="url(#1)"><g clip-path="url(#2)"></g><path id="1" transform="matrix(1 0 0 -1 0 595)" d="M92.7 527L724.8 527" stroke="#000000" stroke-width="1" fill="none" /><path id="2" transform="matrix(1 0 0 -1 0 595)" d="M92.7 492.7L724.8 492.7" stroke="#000000" stroke-width="1" fill="none" /><path id="3" transform="matrix(1 0 0 -1 0 595)" d="M92.7 470.7L724.8 470.7" stroke="#000000" stroke-width="1" fill="none" /><path id="4" transform="matrix(1 0 0 -1 0 595)" d="M92.7 420.3L724.8 420.3" stroke="#000000" stroke-width="1" fill="none" /><path id="5" transform="matrix(1 0 0 -1 0 595)" d="M92.7 387.4L724.8 387.4" stroke="#000000" stroke-width="1" fill="none" /><path id="6" transform="matrix(1 0 0 -1 0 595)" d="M92.7 350L724.8 350" stroke="#000000" stroke-width="1" fill="none" /><path id="7" transform="matrix(1 0 0 -1 0 595)" d="M92.7 320.9L724.8 320.9" stroke="#000000" stroke-width="1" fill="none" /><path id="8" transform="matrix(1 0 0 -1 0 595)" d="M92.7 288L724.8 288" stroke="#000000" stroke-width="1" fill="none" /><path id="9" transform="matrix(1 0 0 -1 0 595)" d="M92.7 259.2L724.8 259.2" stroke="#000000" stroke-width="1" fill="none" /><path id="10" transform="matrix(1 0 0 -1 0 595)" d="M92.7 223.9L724.8 223.9" stroke="#000000" stroke-width="1" fill="none" /><path id="11" transform="matrix(1 0 0 -1 0 595)" d="M92.7 186.9L724.8 186.9" stroke="#000000" stroke-width="1" fill="none" /><path id="12" transform="matrix(1 0 0 -1 0 595)" d="M92.7 150L724.8 150" stroke="#000000" stroke-width="1" fill="none" /><path id="13" transform="matrix(1 0 0 -1 0 595)" d="M92.7 115.7L724.8 115.7" stroke="#000000" stroke-width="1" fill="none" /><path id="14" transform="matrix(1 0 0 -1 0 595)" d="M93.2 527.5L93.2 115.2" stroke="#000000" stroke-width="1" fill="none" /><path id="15" transform="matrix(1 0 0 -1 0 595)" d="M455.2 527.5L455.2 115.2" stroke="#000000" stroke-width="1" fill="none" /><path id="16" transform="matrix(1 0 0 -1 0 595)" d="M511.9 527.5L511.9 115.2" stroke="#000000" stroke-width="1" fill="none" /><path id="17" transform="matrix(1 0 0 -1 0 595)" d="M603.9 527.5L603.9 115.2" stroke="#000000" stroke-width="1" fill="none" /><path id="18" transform="matrix(1 0 0 -1 0 595)" d="M724.3 527.5L724.3 115.2" stroke="#000000" stroke-width="1" fill="none" /></g></g></svg>