<svg xmlns="http://www.w3.org/2000/svg" xmlns:xlink="http://www.w3.org/1999/xlink" id="body_1" preserveAspectRatio="xMinYMin meet" viewBox="0 0 792 1123"><defs><clipPath id="1"><path id="" clip-rule="evenodd" transform="matrix(1 0 0 1 0 0)" d="M0 842L0 -0.03973389L0 -0.03973389L594.9602 -0.03973389L594.9602 -0.03973389L594.9602 842L594.9602 842L0 842z" /></clipPath><clipPath id="2"><path id="" clip-rule="evenodd" transform="matrix(1 0 0 1 0 0)" d="M25.6422 68.35431L293.1222 68.35431L293.1222 68.35431L293.1222 55.99432L293.1222 55.99432L25.6422 55.99432z" /></clipPath><clipPath id="3"><path id="" clip-rule="evenodd" transform="matrix(1 0 0 1 0 0)" d="M25.6422 68.35431L293.1222 68.35431L293.1222 68.35431L293.1222 55.99432L293.1222 55.99432L25.6422 55.99432z" /></clipPath><clipPath id="4"><path id="" clip-rule="evenodd" transform="matrix(1 0 0 1 0 0)" d="M25.6422 68.35431L293.1222 68.35431L293.1222 68.35431L293.1222 55.99432L293.1222 55.99432L25.6422 55.99432z" /></clipPath><clipPath id="5"><path id="" clip-rule="evenodd" transform="matrix(1 0 0 1 0 0)" d="M39.8022 249.0743L259.1632 249.0743L259.1632 249.0743L259.1632 224.3543L259.1632 224.3543L39.8022 224.3543z" /></clipPath><clipPath id="6"><path id="" clip-rule="evenodd" transform="matrix(1 0 0 1 0 0)" d="M39.8022 294.7943L552.4423 294.7943L552.4423 294.7943L552.4423 268.6343L552.4423 268.6343L39.8022 268.6343z" /></clipPath><clipPath id="7"><path id="" clip-rule="evenodd" transform="matrix(1 0 0 1 0 0)" d="M259.1622 312.9143L353.1222 312.9143L353.1222 312.9143L353.1222 294.7943L353.1222 294.7943L259.1622 294.7943z" /></clipPath><clipPath id="8"><path id="" clip-rule="evenodd" transform="matrix(1 0 0 1 0 0)" d="M140.8422 349.2743L441.3222 349.2743L441.3222 349.2743L441.3222 336.1943L441.3222 336.1943L140.8422 336.1943z" /></clipPath><clipPath id="9"><path id="" clip-rule="evenodd" transform="matrix(1 0 0 1 0 0)" d="M25.6422 143.8343L293.1222 143.8343L293.1222 143.8343L293.1222 99.55426L293.1222 99.55426L25.6422 99.55426z" /></clipPath><clipPath id="10"><path id="" clip-rule="evenodd" transform="matrix(1 0 0 1 0 0)" d="M25.6422 143.8343L293.1222 143.8343L293.1222 143.8343L293.1222 99.55426L293.1222 99.55426L25.6422 99.55426z" /></clipPath><clipPath id="11"><path id="" clip-rule="evenodd" transform="matrix(1 0 0 1 0 0)" d="M25.6422 143.8343L293.1222 143.8343L293.1222 143.8343L293.1222 99.55426L293.1222 99.55426L25.6422 99.55426z" /></clipPath><clipPath id="12"><path id="" clip-rule="evenodd" transform="matrix(1 0 0 1 0 0)" d="M25.6422 143.8343L293.1222 143.8343L293.1222 143.8343L293.1222 99.55426L293.1222 99.55426L25.6422 99.55426z" /></clipPath><clipPath id="13"><path id="" clip-rule="evenodd" transform="matrix(1 0 0 1 0 0)" d="M25.6422 567.6743L259.1622 567.6743L259.1622 567.6743L259.1622 556.0343L259.1622 556.0343L25.6422 556.0343z" /></clipPath><clipPath id="14"><path id="" clip-rule="evenodd" transform="matrix(1 0 0 1 0 0)" d="M25.6422 437.7143L259.1622 437.7143L259.1622 437.7143L259.1622 378.1943L259.1622 378.1943L25.6422 378.1943z" /></clipPath><clipPath id="15"><path id="" clip-rule="evenodd" transform="matrix(1 0 0 1 0 0)" d="M336.5622 437.7143L552.4412 437.7143L552.4412 437.7143L552.4412 378.1943L552.4412 378.1943L336.5622 378.1943z" /></clipPath><clipPath id="16"><path id="" clip-rule="evenodd" transform="matrix(1 0 0 1 0 0)" d="M25.6422 485.5943L336.5622 485.5943L336.5622 485.5943L336.5622 473.2343L336.5622 473.2343L25.6422 473.2343z" /></clipPath><clipPath id="17"><path id="" clip-rule="evenodd" transform="matrix(1 0 0 1 0 0)" d="M259.1622 567.6743L552.4412 567.6743L552.4412 567.6743L552.4412 556.0343L552.4412 556.0343L259.1622 556.0343z" /></clipPath><clipPath id="18"><path id="" clip-rule="evenodd" transform="matrix(1 0 0 1 0 0)" d="M25.6422 648.3143L552.4422 648.3143L552.4422 648.3143L552.4422 635.9543L552.4422 635.9543L25.6422 635.9543z" /></clipPath><clipPath id="19"><path id="" clip-rule="evenodd" transform="matrix(1 0 0 1 0 0)" d="M25.6422 689.7143L259.1622 689.7143L259.1622 689.7143L259.1622 678.0743L259.1622 678.0743L25.6422 678.0743z" /></clipPath></defs><g transform="matrix(1.333333 0 0 1.333333 0 0)"><g clip-path="url(#1)"><g clip-path="url(#2)"></g><g clip-path="url(#3)"></g><g clip-path="url(#4)"></g><g clip-path="url(#5)"></g><g clip-path="url(#6)"></g><g clip-path="url(#7)"></g><g clip-path="url(#8)"></g><g clip-path="url(#9)"></g><g clip-path="url(#10)"></g><g clip-path="url(#11)"></g><g clip-path="url(#12)"></g><g clip-path="url(#13)"></g><g clip-path="url(#14)"></g><g clip-path="url(#15)"></g><g clip-path="url(#16)"></g><g clip-path="url(#17)"></g><g clip-path="url(#18)"></g><g clip-path="url(#19)"></g><path id="2285" transform="matrix(1 0 0 -1 0 842)" d="M24.2022 742.9257L27.0822 742.9257L27.0822 743.8847L24.2022 743.8847z" stroke="none" fill="#000000" fill-rule="nonzero" /><path id="2286" transform="matrix(1 0 0 -1 0 842)" d="M26.1222 741.0057L27.0822 741.0057L27.0822 741.9658L26.1222 741.9658z" stroke="none" fill="#000000" fill-rule="nonzero" /><path id="2287" transform="matrix(1 0 0 -1 0 842)" d="M24.2022 741.0057L25.1622 741.0057L25.1622 743.8857L24.2022 743.8857z" stroke="none" fill="#000000" fill-rule="nonzero" /><path id="2288" transform="matrix(1 0 0 -1 0 842)" d="M26.1222 741.0057L27.0822 741.0057L27.0822 741.9658L26.1222 741.9658z" stroke="none" fill="#000000" fill-rule="nonzero" /><path id="2289" transform="matrix(1 0 0 -1 0 842)" d="M26.1222 698.6457L27.0822 698.6457L27.0822 699.6047L26.1222 699.6047z" stroke="none" fill="#000000" fill-rule="nonzero" /><path id="2290" transform="matrix(1 0 0 -1 0 842)" d="M24.2022 696.7257L27.0822 696.7257L27.0822 697.6857L24.2022 697.6857z" stroke="none" fill="#000000" fill-rule="nonzero" /><path id="2291" transform="matrix(1 0 0 -1 0 842)" d="M551.0022 741.0057L551.9622 741.0057L551.9622 741.9658L551.0022 741.9658z" stroke="none" fill="#000000" fill-rule="nonzero" /><path id="2292" transform="matrix(1 0 0 -1 0 842)" d="M552.9222 741.0057L553.8812 741.0057L553.8812 743.8857L552.9222 743.8857z" stroke="none" fill="#000000" fill-rule="nonzero" /><path id="2293" transform="matrix(1 0 0 -1 0 842)" d="M88.8822 682.6857L91.76219 682.6857L91.76219 683.6458L88.8822 683.6458z" stroke="none" fill="#000000" fill-rule="nonzero" /><path id="2294" transform="matrix(1 0 0 -1 0 842)" d="M90.8022 680.7657L91.76219 680.7657L91.76219 681.7257L90.8022 681.7257z" stroke="none" fill="#000000" fill-rule="nonzero" /><path id="2295" transform="matrix(1 0 0 -1 0 842)" d="M257.7222 680.7657L258.6812 680.7657L258.6812 681.7257L257.7222 681.7257z" stroke="none" fill="#000000" fill-rule="nonzero" /><path id="2296" transform="matrix(1 0 0 -1 0 842)" d="M257.7222 682.6857L260.6022 682.6857L260.6022 683.6458L257.7222 683.6458z" stroke="none" fill="#000000" fill-rule="nonzero" /><path id="2297" transform="matrix(1 0 0 -1 0 842)" d="M91.76221 682.6857L257.7222 682.6857L257.7222 683.6458L91.76221 683.6458z" stroke="none" fill="#000000" fill-rule="nonzero" /><path id="2298" transform="matrix(1 0 0 -1 0 842)" d="M91.76221 680.7657L257.7222 680.7657L257.7222 681.7257L91.76221 681.7257z" stroke="none" fill="#000000" fill-rule="nonzero" /><path id="2299" transform="matrix(1 0 0 -1 0 842)" d="M335.1222 682.6857L338.0022 682.6857L338.0022 683.6458L335.1222 683.6458z" stroke="none" fill="#000000" fill-rule="nonzero" /><path id="2300" transform="matrix(1 0 0 -1 0 842)" d="M337.0422 680.7657L338.0022 680.7657L338.0022 681.7257L337.0422 681.7257z" stroke="none" fill="#000000" fill-rule="nonzero" /><path id="2301" transform="matrix(1 0 0 -1 0 842)" d="M486.4422 680.7657L487.4022 680.7657L487.4022 681.7257L486.4422 681.7257z" stroke="none" fill="#000000" fill-rule="nonzero" /><path id="2302" transform="matrix(1 0 0 -1 0 842)" d="M486.4422 682.6857L489.3222 682.6857L489.3222 683.6458L486.4422 683.6458z" stroke="none" fill="#000000" fill-rule="nonzero" /><path id="2303" transform="matrix(1 0 0 -1 0 842)" d="M338.0022 682.6857L486.4422 682.6857L486.4422 683.6458L338.0022 683.6458z" stroke="none" fill="#000000" fill-rule="nonzero" /><path id="2304" transform="matrix(1 0 0 -1 0 842)" d="M338.0022 680.7657L486.4422 680.7657L486.4422 681.7257L338.0022 681.7257z" stroke="none" fill="#000000" fill-rule="nonzero" /><path id="2305" transform="matrix(1 0 0 -1 0 842)" d="M502.1622 682.6857L505.0422 682.6857L505.0422 683.6458L502.1622 683.6458z" stroke="none" fill="#000000" fill-rule="nonzero" /><path id="2306" transform="matrix(1 0 0 -1 0 842)" d="M504.0822 680.7657L505.0422 680.7657L505.0422 681.7257L504.0822 681.7257z" stroke="none" fill="#000000" fill-rule="nonzero" /><path id="2307" transform="matrix(1 0 0 -1 0 842)" d="M552.9222 696.7257L553.8812 696.7257L553.8812 699.6057L552.9222 699.6057z" stroke="none" fill="#000000" fill-rule="nonzero" /><path id="2308" transform="matrix(1 0 0 -1 0 842)" d="M551.0022 698.6457L551.9622 698.6457L551.9622 699.6047L551.0022 699.6047z" stroke="none" fill="#000000" fill-rule="nonzero" /><path id="2309" transform="matrix(1 0 0 -1 0 842)" d="M88.8822 680.7657L89.8412 680.7657L89.8412 683.6457L88.8822 683.6457z" stroke="none" fill="#000000" fill-rule="nonzero" /><path id="2310" transform="matrix(1 0 0 -1 0 842)" d="M90.8022 680.7657L91.76219 680.7657L91.76219 681.7257L90.8022 681.7257z" stroke="none" fill="#000000" fill-rule="nonzero" /><path id="2311" transform="matrix(1 0 0 -1 0 842)" d="M90.8022 667.4457L91.76219 667.4457L91.76219 668.4058L90.8022 668.4058z" stroke="none" fill="#000000" fill-rule="nonzero" /><path id="2312" transform="matrix(1 0 0 -1 0 842)" d="M88.8822 665.5257L91.76219 665.5257L91.76219 666.4847L88.8822 666.4847z" stroke="none" fill="#000000" fill-rule="nonzero" /><path id="2313" transform="matrix(1 0 0 -1 0 842)" d="M257.7222 680.7657L258.6812 680.7657L258.6812 681.7257L257.7222 681.7257z" stroke="none" fill="#000000" fill-rule="nonzero" /><path id="2314" transform="matrix(1 0 0 -1 0 842)" d="M259.6422 680.7657L260.6022 680.7657L260.6022 683.6457L259.6422 683.6457z" stroke="none" fill="#000000" fill-rule="nonzero" /><path id="2315" transform="matrix(1 0 0 -1 0 842)" d="M257.7222 665.5257L260.6022 665.5257L260.6022 666.4847L257.7222 666.4847z" stroke="none" fill="#000000" fill-rule="nonzero" /><path id="2316" transform="matrix(1 0 0 -1 0 842)" d="M257.7222 667.4457L258.6812 667.4457L258.6812 668.4058L257.7222 668.4058z" stroke="none" fill="#000000" fill-rule="nonzero" /><path id="2317" transform="matrix(1 0 0 -1 0 842)" d="M335.1222 680.7657L336.0812 680.7657L336.0812 683.6457L335.1222 683.6457z" stroke="none" fill="#000000" fill-rule="nonzero" /><path id="2318" transform="matrix(1 0 0 -1 0 842)" d="M337.0422 680.7657L338.0022 680.7657L338.0022 681.7257L337.0422 681.7257z" stroke="none" fill="#000000" fill-rule="nonzero" /><path id="2319" transform="matrix(1 0 0 -1 0 842)" d="M91.76221 667.4457L257.7222 667.4457L257.7222 668.4058L91.76221 668.4058z" stroke="none" fill="#000000" fill-rule="nonzero" /><path id="2320" transform="matrix(1 0 0 -1 0 842)" d="M91.76221 665.5257L257.7222 665.5257L257.7222 666.4847L91.76221 666.4847z" stroke="none" fill="#000000" fill-rule="nonzero" /><path id="2321" transform="matrix(1 0 0 -1 0 842)" d="M337.0422 667.4457L338.0022 667.4457L338.0022 668.4058L337.0422 668.4058z" stroke="none" fill="#000000" fill-rule="nonzero" /><path id="2322" transform="matrix(1 0 0 -1 0 842)" d="M335.1222 665.5257L338.0022 665.5257L338.0022 666.4847L335.1222 666.4847z" stroke="none" fill="#000000" fill-rule="nonzero" /><path id="2323" transform="matrix(1 0 0 -1 0 842)" d="M486.4422 680.7657L487.4022 680.7657L487.4022 681.7257L486.4422 681.7257z" stroke="none" fill="#000000" fill-rule="nonzero" /><path id="2324" transform="matrix(1 0 0 -1 0 842)" d="M488.3622 680.7657L489.3222 680.7657L489.3222 683.6457L488.3622 683.6457z" stroke="none" fill="#000000" fill-rule="nonzero" /><path id="2325" transform="matrix(1 0 0 -1 0 842)" d="M486.4422 665.5257L489.3222 665.5257L489.3222 666.4847L486.4422 666.4847z" stroke="none" fill="#000000" fill-rule="nonzero" /><path id="2326" transform="matrix(1 0 0 -1 0 842)" d="M486.4422 667.4457L487.4022 667.4457L487.4022 668.4058L486.4422 668.4058z" stroke="none" fill="#000000" fill-rule="nonzero" /><path id="2327" transform="matrix(1 0 0 -1 0 842)" d="M502.1622 680.7657L503.1212 680.7657L503.1212 683.6457L502.1622 683.6457z" stroke="none" fill="#000000" fill-rule="nonzero" /><path id="2328" transform="matrix(1 0 0 -1 0 842)" d="M504.0822 680.7657L505.0422 680.7657L505.0422 681.7257L504.0822 681.7257z" stroke="none" fill="#000000" fill-rule="nonzero" /><path id="2329" transform="matrix(1 0 0 -1 0 842)" d="M338.0022 667.4457L486.4422 667.4457L486.4422 668.4058L338.0022 668.4058z" stroke="none" fill="#000000" fill-rule="nonzero" /><path id="2330" transform="matrix(1 0 0 -1 0 842)" d="M338.0022 665.5257L486.4422 665.5257L486.4422 666.4847L338.0022 666.4847z" stroke="none" fill="#000000" fill-rule="nonzero" /><path id="2331" transform="matrix(1 0 0 -1 0 842)" d="M504.0822 667.4457L505.0422 667.4457L505.0422 668.4058L504.0822 668.4058z" stroke="none" fill="#000000" fill-rule="nonzero" /><path id="2332" transform="matrix(1 0 0 -1 0 842)" d="M502.1622 665.5257L505.0422 665.5257L505.0422 666.4847L502.1622 666.4847z" stroke="none" fill="#000000" fill-rule="nonzero" /><path id="2333" transform="matrix(1 0 0 -1 0 842)" d="M551.0022 699.6057L551.9622 699.6057L551.9622 741.0057L551.0022 741.0057z" stroke="none" fill="#000000" fill-rule="nonzero" /><path id="2334" transform="matrix(1 0 0 -1 0 842)" d="M552.9222 699.6057L553.8812 699.6057L553.8812 741.0057L552.9222 741.0057z" stroke="none" fill="#000000" fill-rule="nonzero" /><path id="2335" transform="matrix(1 0 0 -1 0 842)" d="M551.0022 680.7657L551.9622 680.7657L551.9622 681.7257L551.0022 681.7257z" stroke="none" fill="#000000" fill-rule="nonzero" /><path id="2336" transform="matrix(1 0 0 -1 0 842)" d="M552.9222 680.7657L553.8812 680.7657L553.8812 683.6457L552.9222 683.6457z" stroke="none" fill="#000000" fill-rule="nonzero" /><path id="2337" transform="matrix(1 0 0 -1 0 842)" d="M90.8022 667.4457L91.76219 667.4457L91.76219 668.4058L90.8022 668.4058z" stroke="none" fill="#000000" fill-rule="nonzero" /><path id="2338" transform="matrix(1 0 0 -1 0 842)" d="M88.8822 665.5257L89.8412 665.5257L89.8412 668.4057L88.8822 668.4057z" stroke="none" fill="#000000" fill-rule="nonzero" /><path id="2339" transform="matrix(1 0 0 -1 0 842)" d="M88.8822 650.0457L91.76219 650.0457L91.76219 651.0047L88.8822 651.0047z" stroke="none" fill="#000000" fill-rule="nonzero" /><path id="2340" transform="matrix(1 0 0 -1 0 842)" d="M90.8022 648.1257L91.76219 648.1257L91.76219 649.0858L90.8022 649.0858z" stroke="none" fill="#000000" fill-rule="nonzero" /><path id="2341" transform="matrix(1 0 0 -1 0 842)" d="M259.6422 665.5257L260.6022 665.5257L260.6022 668.4057L259.6422 668.4057z" stroke="none" fill="#000000" fill-rule="nonzero" /><path id="2342" transform="matrix(1 0 0 -1 0 842)" d="M257.7222 667.4457L258.6812 667.4457L258.6812 668.4058L257.7222 668.4058z" stroke="none" fill="#000000" fill-rule="nonzero" /><path id="2343" transform="matrix(1 0 0 -1 0 842)" d="M257.7222 648.1257L258.6812 648.1257L258.6812 649.0858L257.7222 649.0858z" stroke="none" fill="#000000" fill-rule="nonzero" /><path id="2344" transform="matrix(1 0 0 -1 0 842)" d="M257.7222 650.0457L260.6022 650.0457L260.6022 651.0047L257.7222 651.0047z" stroke="none" fill="#000000" fill-rule="nonzero" /><path id="2345" transform="matrix(1 0 0 -1 0 842)" d="M337.0422 667.4457L338.0022 667.4457L338.0022 668.4058L337.0422 668.4058z" stroke="none" fill="#000000" fill-rule="nonzero" /><path id="2346" transform="matrix(1 0 0 -1 0 842)" d="M335.1222 665.5257L336.0812 665.5257L336.0812 668.4057L335.1222 668.4057z" stroke="none" fill="#000000" fill-rule="nonzero" /><path id="2347" transform="matrix(1 0 0 -1 0 842)" d="M91.76221 650.0457L257.7222 650.0457L257.7222 651.0047L91.76221 651.0047z" stroke="none" fill="#000000" fill-rule="nonzero" /><path id="2348" transform="matrix(1 0 0 -1 0 842)" d="M91.76221 648.1257L257.7222 648.1257L257.7222 649.0858L91.76221 649.0858z" stroke="none" fill="#000000" fill-rule="nonzero" /><path id="2349" transform="matrix(1 0 0 -1 0 842)" d="M335.1222 650.0457L338.0022 650.0457L338.0022 651.0047L335.1222 651.0047z" stroke="none" fill="#000000" fill-rule="nonzero" /><path id="2350" transform="matrix(1 0 0 -1 0 842)" d="M337.0422 648.1257L338.0022 648.1257L338.0022 649.0858L337.0422 649.0858z" stroke="none" fill="#000000" fill-rule="nonzero" /><path id="2351" transform="matrix(1 0 0 -1 0 842)" d="M488.3622 665.5257L489.3222 665.5257L489.3222 668.4057L488.3622 668.4057z" stroke="none" fill="#000000" fill-rule="nonzero" /><path id="2352" transform="matrix(1 0 0 -1 0 842)" d="M486.4422 667.4457L487.4022 667.4457L487.4022 668.4058L486.4422 668.4058z" stroke="none" fill="#000000" fill-rule="nonzero" /><path id="2353" transform="matrix(1 0 0 -1 0 842)" d="M88.8822 668.4057L89.8412 668.4057L89.8412 680.7657L88.8822 680.7657z" stroke="none" fill="#000000" fill-rule="nonzero" /><path id="2354" transform="matrix(1 0 0 -1 0 842)" d="M90.8022 668.4057L91.76219 668.4057L91.76219 680.7657L90.8022 680.7657z" stroke="none" fill="#000000" fill-rule="nonzero" /><path id="2355" transform="matrix(1 0 0 -1 0 842)" d="M88.8822 648.1257L89.8412 648.1257L89.8412 651.0057L88.8822 651.0057z" stroke="none" fill="#000000" fill-rule="nonzero" /><path id="2356" transform="matrix(1 0 0 -1 0 842)" d="M90.8022 648.1257L91.76219 648.1257L91.76219 649.0858L90.8022 649.0858z" stroke="none" fill="#000000" fill-rule="nonzero" /><path id="2357" transform="matrix(1 0 0 -1 0 842)" d="M90.8022 635.5257L91.76219 635.5257L91.76219 636.4857L90.8022 636.4857z" stroke="none" fill="#000000" fill-rule="nonzero" /><path id="2358" transform="matrix(1 0 0 -1 0 842)" d="M88.8822 633.6057L91.76219 633.6057L91.76219 634.5657L88.8822 634.5657z" stroke="none" fill="#000000" fill-rule="nonzero" /><path id="2359" transform="matrix(1 0 0 -1 0 842)" d="M257.7222 668.4057L258.6812 668.4057L258.6812 680.7657L257.7222 680.7657z" stroke="none" fill="#000000" fill-rule="nonzero" /><path id="2360" transform="matrix(1 0 0 -1 0 842)" d="M259.6422 668.4057L260.6022 668.4057L260.6022 680.7657L259.6422 680.7657z" stroke="none" fill="#000000" fill-rule="nonzero" /><path id="2361" transform="matrix(1 0 0 -1 0 842)" d="M257.7222 648.1257L258.6812 648.1257L258.6812 649.0858L257.7222 649.0858z" stroke="none" fill="#000000" fill-rule="nonzero" /><path id="2362" transform="matrix(1 0 0 -1 0 842)" d="M259.6422 648.1257L260.6022 648.1257L260.6022 651.0057L259.6422 651.0057z" stroke="none" fill="#000000" fill-rule="nonzero" /><path id="2363" transform="matrix(1 0 0 -1 0 842)" d="M257.7222 633.6057L260.6022 633.6057L260.6022 634.5657L257.7222 634.5657z" stroke="none" fill="#000000" fill-rule="nonzero" /><path id="2364" transform="matrix(1 0 0 -1 0 842)" d="M257.7222 635.5257L258.6812 635.5257L258.6812 636.4857L257.7222 636.4857z" stroke="none" fill="#000000" fill-rule="nonzero" /><path id="2365" transform="matrix(1 0 0 -1 0 842)" d="M335.1222 668.4057L336.0812 668.4057L336.0812 680.7657L335.1222 680.7657z" stroke="none" fill="#000000" fill-rule="nonzero" /><path id="2366" transform="matrix(1 0 0 -1 0 842)" d="M337.0422 668.4057L338.0022 668.4057L338.0022 680.7657L337.0422 680.7657z" stroke="none" fill="#000000" fill-rule="nonzero" /><path id="2367" transform="matrix(1 0 0 -1 0 842)" d="M335.1222 648.1257L336.0812 648.1257L336.0812 651.0057L335.1222 651.0057z" stroke="none" fill="#000000" fill-rule="nonzero" /><path id="2368" transform="matrix(1 0 0 -1 0 842)" d="M337.0422 648.1257L338.0022 648.1257L338.0022 649.0858L337.0422 649.0858z" stroke="none" fill="#000000" fill-rule="nonzero" /><path id="2369" transform="matrix(1 0 0 -1 0 842)" d="M91.76221 635.5257L257.7222 635.5257L257.7222 636.4857L91.76221 636.4857z" stroke="none" fill="#000000" fill-rule="nonzero" /><path id="2370" transform="matrix(1 0 0 -1 0 842)" d="M91.76221 633.6057L257.7222 633.6057L257.7222 634.5657L91.76221 634.5657z" stroke="none" fill="#000000" fill-rule="nonzero" /><path id="2371" transform="matrix(1 0 0 -1 0 842)" d="M337.0422 635.5257L338.0022 635.5257L338.0022 636.4857L337.0422 636.4857z" stroke="none" fill="#000000" fill-rule="nonzero" /><path id="2372" transform="matrix(1 0 0 -1 0 842)" d="M335.1222 633.6057L338.0022 633.6057L338.0022 634.5657L335.1222 634.5657z" stroke="none" fill="#000000" fill-rule="nonzero" /><path id="2373" transform="matrix(1 0 0 -1 0 842)" d="M486.4422 668.4057L487.4022 668.4057L487.4022 680.7657L486.4422 680.7657z" stroke="none" fill="#000000" fill-rule="nonzero" /><path id="2374" transform="matrix(1 0 0 -1 0 842)" d="M488.3622 668.4057L489.3222 668.4057L489.3222 680.7657L488.3622 680.7657z" stroke="none" fill="#000000" fill-rule="nonzero" /><path id="2375" transform="matrix(1 0 0 -1 0 842)" d="M486.4422 648.1257L487.4022 648.1257L487.4022 649.0858L486.4422 649.0858z" stroke="none" fill="#000000" fill-rule="nonzero" /><path id="2376" transform="matrix(1 0 0 -1 0 842)" d="M488.3622 648.1257L489.3222 648.1257L489.3222 651.0057L488.3622 651.0057z" stroke="none" fill="#000000" fill-rule="nonzero" /><path id="2377" transform="matrix(1 0 0 -1 0 842)" d="M38.3622 618.1257L41.2422 618.1257L41.2422 619.0858L38.3622 619.0858z" stroke="none" fill="#000000" fill-rule="nonzero" /><path id="2378" transform="matrix(1 0 0 -1 0 842)" d="M40.2822 616.2057L41.2412 616.2057L41.2412 617.1647L40.2822 617.1647z" stroke="none" fill="#000000" fill-rule="nonzero" /><path id="2379" transform="matrix(1 0 0 -1 0 842)" d="M259.6422 633.6057L260.6022 633.6057L260.6022 636.4857L259.6422 636.4857z" stroke="none" fill="#000000" fill-rule="nonzero" /><path id="2380" transform="matrix(1 0 0 -1 0 842)" d="M257.7222 635.5257L258.6812 635.5257L258.6812 636.4857L257.7222 636.4857z" stroke="none" fill="#000000" fill-rule="nonzero" /><path id="2381" transform="matrix(1 0 0 -1 0 842)" d="M257.7222 616.2057L258.6812 616.2057L258.6812 617.1647L257.7222 617.1647z" stroke="none" fill="#000000" fill-rule="nonzero" /><path id="2382" transform="matrix(1 0 0 -1 0 842)" d="M257.7222 618.1257L260.6022 618.1257L260.6022 619.0858L257.7222 619.0858z" stroke="none" fill="#000000" fill-rule="nonzero" /><path id="2383" transform="matrix(1 0 0 -1 0 842)" d="M337.0422 635.5257L338.0022 635.5257L338.0022 636.4857L337.0422 636.4857z" stroke="none" fill="#000000" fill-rule="nonzero" /><path id="2384" transform="matrix(1 0 0 -1 0 842)" d="M335.1222 633.6057L336.0812 633.6057L336.0812 636.4857L335.1222 636.4857z" stroke="none" fill="#000000" fill-rule="nonzero" /><path id="2385" transform="matrix(1 0 0 -1 0 842)" d="M41.2422 618.1257L257.7232 618.1257L257.7232 619.0858L41.2422 619.0858z" stroke="none" fill="#000000" fill-rule="nonzero" /><path id="2386" transform="matrix(1 0 0 -1 0 842)" d="M41.2422 616.2057L257.7232 616.2057L257.7232 617.1647L41.2422 617.1647z" stroke="none" fill="#000000" fill-rule="nonzero" /><path id="2387" transform="matrix(1 0 0 -1 0 842)" d="M335.1222 618.1257L338.0022 618.1257L338.0022 619.0858L335.1222 619.0858z" stroke="none" fill="#000000" fill-rule="nonzero" /><path id="2388" transform="matrix(1 0 0 -1 0 842)" d="M337.0422 616.2057L338.0022 616.2057L338.0022 617.1647L337.0422 617.1647z" stroke="none" fill="#000000" fill-rule="nonzero" /><path id="2389" transform="matrix(1 0 0 -1 0 842)" d="M38.3622 616.2057L39.3222 616.2057L39.3222 619.0857L38.3622 619.0857z" stroke="none" fill="#000000" fill-rule="nonzero" /><path id="2390" transform="matrix(1 0 0 -1 0 842)" d="M40.2822 616.2057L41.2412 616.2057L41.2412 617.1647L40.2822 617.1647z" stroke="none" fill="#000000" fill-rule="nonzero" /><path id="2391" transform="matrix(1 0 0 -1 0 842)" d="M40.2822 593.4057L41.2412 593.4057L41.2412 594.3657L40.2822 594.3657z" stroke="none" fill="#000000" fill-rule="nonzero" /><path id="2392" transform="matrix(1 0 0 -1 0 842)" d="M38.3622 591.4857L41.2422 591.4857L41.2422 592.4457L38.3622 592.4457z" stroke="none" fill="#000000" fill-rule="nonzero" /><path id="2393" transform="matrix(1 0 0 -1 0 842)" d="M257.7222 636.4857L258.6812 636.4857L258.6812 648.1257L257.7222 648.1257z" stroke="none" fill="#000000" fill-rule="nonzero" /><path id="2394" transform="matrix(1 0 0 -1 0 842)" d="M259.6422 636.4857L260.6022 636.4857L260.6022 648.1257L259.6422 648.1257z" stroke="none" fill="#000000" fill-rule="nonzero" /><path id="2395" transform="matrix(1 0 0 -1 0 842)" d="M257.7222 616.2057L258.6812 616.2057L258.6812 617.1647L257.7222 617.1647z" stroke="none" fill="#000000" fill-rule="nonzero" /><path id="2396" transform="matrix(1 0 0 -1 0 842)" d="M259.6422 616.2057L260.6022 616.2057L260.6022 619.0857L259.6422 619.0857z" stroke="none" fill="#000000" fill-rule="nonzero" /><path id="2397" transform="matrix(1 0 0 -1 0 842)" d="M257.7222 591.4857L260.6022 591.4857L260.6022 592.4457L257.7222 592.4457z" stroke="none" fill="#000000" fill-rule="nonzero" /><path id="2398" transform="matrix(1 0 0 -1 0 842)" d="M257.7222 593.4057L258.6812 593.4057L258.6812 594.3657L257.7222 594.3657z" stroke="none" fill="#000000" fill-rule="nonzero" /><path id="2399" transform="matrix(1 0 0 -1 0 842)" d="M335.1222 636.4857L336.0812 636.4857L336.0812 648.1257L335.1222 648.1257z" stroke="none" fill="#000000" fill-rule="nonzero" /><path id="2400" transform="matrix(1 0 0 -1 0 842)" d="M337.0422 636.4857L338.0022 636.4857L338.0022 648.1257L337.0422 648.1257z" stroke="none" fill="#000000" fill-rule="nonzero" /><path id="2401" transform="matrix(1 0 0 -1 0 842)" d="M335.1222 616.2057L336.0812 616.2057L336.0812 619.0857L335.1222 619.0857z" stroke="none" fill="#000000" fill-rule="nonzero" /><path id="2402" transform="matrix(1 0 0 -1 0 842)" d="M337.0422 616.2057L338.0022 616.2057L338.0022 617.1647L337.0422 617.1647z" stroke="none" fill="#000000" fill-rule="nonzero" /><path id="2403" transform="matrix(1 0 0 -1 0 842)" d="M41.2422 593.4057L257.7232 593.4057L257.7232 594.3657L41.2422 594.3657z" stroke="none" fill="#000000" fill-rule="nonzero" /><path id="2404" transform="matrix(1 0 0 -1 0 842)" d="M41.2422 591.4857L257.7232 591.4857L257.7232 592.4457L41.2422 592.4457z" stroke="none" fill="#000000" fill-rule="nonzero" /><path id="2405" transform="matrix(1 0 0 -1 0 842)" d="M337.0422 593.4057L338.0022 593.4057L338.0022 594.3657L337.0422 594.3657z" stroke="none" fill="#000000" fill-rule="nonzero" /><path id="2406" transform="matrix(1 0 0 -1 0 842)" d="M335.1222 591.4857L338.0022 591.4857L338.0022 592.4457L335.1222 592.4457z" stroke="none" fill="#000000" fill-rule="nonzero" /><path id="2407" transform="matrix(1 0 0 -1 0 842)" d="M534.4422 616.2057L535.4022 616.2057L535.4022 617.1647L534.4422 617.1647z" stroke="none" fill="#000000" fill-rule="nonzero" /><path id="2408" transform="matrix(1 0 0 -1 0 842)" d="M536.3622 616.2057L537.3212 616.2057L537.3212 619.0857L536.3622 619.0857z" stroke="none" fill="#000000" fill-rule="nonzero" /><path id="2409" transform="matrix(1 0 0 -1 0 842)" d="M26.1222 698.6457L27.0822 698.6457L27.0822 699.6047L26.1222 699.6047z" stroke="none" fill="#000000" fill-rule="nonzero" /><path id="2410" transform="matrix(1 0 0 -1 0 842)" d="M24.2022 696.7257L25.1622 696.7257L25.1622 699.6057L24.2022 699.6057z" stroke="none" fill="#000000" fill-rule="nonzero" /><path id="2411" transform="matrix(1 0 0 -1 0 842)" d="M24.2022 573.8457L27.0822 573.8457L27.0822 574.8057L24.2022 574.8057z" stroke="none" fill="#000000" fill-rule="nonzero" /><path id="2412" transform="matrix(1 0 0 -1 0 842)" d="M26.1222 571.9257L27.0822 571.9257L27.0822 572.8847L26.1222 572.8847z" stroke="none" fill="#000000" fill-rule="nonzero" /><path id="2413" transform="matrix(1 0 0 -1 0 842)" d="M552.9222 665.5257L553.8812 665.5257L553.8812 668.4057L552.9222 668.4057z" stroke="none" fill="#000000" fill-rule="nonzero" /><path id="2414" transform="matrix(1 0 0 -1 0 842)" d="M551.0022 667.4457L551.9622 667.4457L551.9622 668.4058L551.0022 668.4058z" stroke="none" fill="#000000" fill-rule="nonzero" /><path id="2415" transform="matrix(1 0 0 -1 0 842)" d="M24.2022 699.6057L25.1622 699.6057L25.1622 741.0057L24.2022 741.0057z" stroke="none" fill="#000000" fill-rule="nonzero" /><path id="2416" transform="matrix(1 0 0 -1 0 842)" d="M26.1222 699.6057L27.0822 699.6057L27.0822 741.0057L26.1222 741.0057z" stroke="none" fill="#000000" fill-rule="nonzero" /><path id="2417" transform="matrix(1 0 0 -1 0 842)" d="M551.0022 668.4057L551.9622 668.4057L551.9622 680.7657L551.0022 680.7657z" stroke="none" fill="#000000" fill-rule="nonzero" /><path id="2418" transform="matrix(1 0 0 -1 0 842)" d="M552.9222 668.4057L553.8812 668.4057L553.8812 680.7657L552.9222 680.7657z" stroke="none" fill="#000000" fill-rule="nonzero" /><path id="2419" transform="matrix(1 0 0 -1 0 842)" d="M24.2022 571.9257L25.1622 571.9257L25.1622 574.8057L24.2022 574.8057z" stroke="none" fill="#000000" fill-rule="nonzero" /><path id="2420" transform="matrix(1 0 0 -1 0 842)" d="M26.1222 571.9257L27.0822 571.9257L27.0822 572.8847L26.1222 572.8847z" stroke="none" fill="#000000" fill-rule="nonzero" /><path id="2421" transform="matrix(1 0 0 -1 0 842)" d="M26.1222 487.4457L27.0822 487.4457L27.0822 488.4057L26.1222 488.4057z" stroke="none" fill="#000000" fill-rule="nonzero" /><path id="2422" transform="matrix(1 0 0 -1 0 842)" d="M24.2022 485.5257L27.0822 485.5257L27.0822 486.4847L24.2022 486.4847z" stroke="none" fill="#000000" fill-rule="nonzero" /><path id="2423" transform="matrix(1 0 0 -1 0 842)" d="M551.0022 571.9257L551.9622 571.9257L551.9622 572.8847L551.0022 572.8847z" stroke="none" fill="#000000" fill-rule="nonzero" /><path id="2424" transform="matrix(1 0 0 -1 0 842)" d="M552.9222 571.9257L553.8812 571.9257L553.8812 574.8057L552.9222 574.8057z" stroke="none" fill="#000000" fill-rule="nonzero" /><path id="2425" transform="matrix(1 0 0 -1 0 842)" d="M26.1222 487.4457L27.0822 487.4457L27.0822 488.4057L26.1222 488.4057z" stroke="none" fill="#000000" fill-rule="nonzero" /><path id="2426" transform="matrix(1 0 0 -1 0 842)" d="M24.2022 485.5257L25.1622 485.5257L25.1622 488.4057L24.2022 488.4057z" stroke="none" fill="#000000" fill-rule="nonzero" /><path id="2427" transform="matrix(1 0 0 -1 0 842)" d="M24.2022 464.2857L27.0822 464.2857L27.0822 465.2447L24.2022 465.2447z" stroke="none" fill="#000000" fill-rule="nonzero" /><path id="2428" transform="matrix(1 0 0 -1 0 842)" d="M26.1222 462.3657L27.0822 462.3657L27.0822 463.3257L26.1222 463.3257z" stroke="none" fill="#000000" fill-rule="nonzero" /><path id="2429" transform="matrix(1 0 0 -1 0 842)" d="M259.6422 591.4857L260.6022 591.4857L260.6022 594.3657L259.6422 594.3657z" stroke="none" fill="#000000" fill-rule="nonzero" /><path id="2430" transform="matrix(1 0 0 -1 0 842)" d="M257.7222 593.4057L258.6812 593.4057L258.6812 594.3657L257.7222 594.3657z" stroke="none" fill="#000000" fill-rule="nonzero" /><path id="2431" transform="matrix(1 0 0 -1 0 842)" d="M257.7222 462.3657L258.6812 462.3657L258.6812 463.3257L257.7222 463.3257z" stroke="none" fill="#000000" fill-rule="nonzero" /><path id="2432" transform="matrix(1 0 0 -1 0 842)" d="M257.7222 464.2857L260.6022 464.2857L260.6022 465.2447L257.7222 465.2447z" stroke="none" fill="#000000" fill-rule="nonzero" /><path id="2433" transform="matrix(1 0 0 -1 0 842)" d="M337.0422 593.4057L338.0022 593.4057L338.0022 594.3657L337.0422 594.3657z" stroke="none" fill="#000000" fill-rule="nonzero" /><path id="2434" transform="matrix(1 0 0 -1 0 842)" d="M335.1222 591.4857L336.0812 591.4857L336.0812 594.3657L335.1222 594.3657z" stroke="none" fill="#000000" fill-rule="nonzero" /><path id="2435" transform="matrix(1 0 0 -1 0 842)" d="M27.0822 464.2857L257.7222 464.2857L257.7222 465.2447L27.0822 465.2447z" stroke="none" fill="#000000" fill-rule="nonzero" /><path id="2436" transform="matrix(1 0 0 -1 0 842)" d="M27.0822 462.3657L257.7222 462.3657L257.7222 463.3257L27.0822 463.3257z" stroke="none" fill="#000000" fill-rule="nonzero" /><path id="2437" transform="matrix(1 0 0 -1 0 842)" d="M335.1222 464.2857L338.0022 464.2857L338.0022 465.2447L335.1222 465.2447z" stroke="none" fill="#000000" fill-rule="nonzero" /><path id="2438" transform="matrix(1 0 0 -1 0 842)" d="M337.0422 462.3657L338.0022 462.3657L338.0022 463.3257L337.0422 463.3257z" stroke="none" fill="#000000" fill-rule="nonzero" /><path id="2439" transform="matrix(1 0 0 -1 0 842)" d="M552.9222 485.5257L553.8812 485.5257L553.8812 488.4057L552.9222 488.4057z" stroke="none" fill="#000000" fill-rule="nonzero" /><path id="2440" transform="matrix(1 0 0 -1 0 842)" d="M551.0022 487.4457L551.9622 487.4457L551.9622 488.4057L551.0022 488.4057z" stroke="none" fill="#000000" fill-rule="nonzero" /><path id="2441" transform="matrix(1 0 0 -1 0 842)" d="M24.2022 488.4057L25.1622 488.4057L25.1622 571.9257L24.2022 571.9257z" stroke="none" fill="#000000" fill-rule="nonzero" /><path id="2442" transform="matrix(1 0 0 -1 0 842)" d="M26.1222 488.4057L27.0822 488.4057L27.0822 571.9257L26.1222 571.9257z" stroke="none" fill="#000000" fill-rule="nonzero" /><path id="2443" transform="matrix(1 0 0 -1 0 842)" d="M24.2022 462.3657L25.1622 462.3657L25.1622 465.2457L24.2022 465.2457z" stroke="none" fill="#000000" fill-rule="nonzero" /><path id="2444" transform="matrix(1 0 0 -1 0 842)" d="M26.1222 462.3657L27.0822 462.3657L27.0822 463.3257L26.1222 463.3257z" stroke="none" fill="#000000" fill-rule="nonzero" /><path id="2445" transform="matrix(1 0 0 -1 0 842)" d="M26.1222 404.7657L27.0822 404.7657L27.0822 405.7257L26.1222 405.7257z" stroke="none" fill="#000000" fill-rule="nonzero" /><path id="2446" transform="matrix(1 0 0 -1 0 842)" d="M24.2022 402.8457L27.0822 402.8457L27.0822 403.8057L24.2022 403.8057z" stroke="none" fill="#000000" fill-rule="nonzero" /><path id="2447" transform="matrix(1 0 0 -1 0 842)" d="M257.7222 594.3657L258.6812 594.3657L258.6812 616.2057L257.7222 616.2057z" stroke="none" fill="#000000" fill-rule="nonzero" /><path id="2448" transform="matrix(1 0 0 -1 0 842)" d="M259.6422 594.3657L260.6022 594.3657L260.6022 616.2057L259.6422 616.2057z" stroke="none" fill="#000000" fill-rule="nonzero" /><path id="2449" transform="matrix(1 0 0 -1 0 842)" d="M257.7222 462.3657L258.6812 462.3657L258.6812 463.3257L257.7222 463.3257z" stroke="none" fill="#000000" fill-rule="nonzero" /><path id="2450" transform="matrix(1 0 0 -1 0 842)" d="M259.6422 462.3657L260.6022 462.3657L260.6022 465.2457L259.6422 465.2457z" stroke="none" fill="#000000" fill-rule="nonzero" /><path id="2451" transform="matrix(1 0 0 -1 0 842)" d="M257.7222 402.8457L260.6022 402.8457L260.6022 403.8057L257.7222 403.8057z" stroke="none" fill="#000000" fill-rule="nonzero" /><path id="2452" transform="matrix(1 0 0 -1 0 842)" d="M257.7222 404.7657L258.6812 404.7657L258.6812 405.7257L257.7222 405.7257z" stroke="none" fill="#000000" fill-rule="nonzero" /><path id="2453" transform="matrix(1 0 0 -1 0 842)" d="M335.1222 594.3657L336.0812 594.3657L336.0812 616.2057L335.1222 616.2057z" stroke="none" fill="#000000" fill-rule="nonzero" /><path id="2454" transform="matrix(1 0 0 -1 0 842)" d="M337.0422 594.3657L338.0022 594.3657L338.0022 616.2057L337.0422 616.2057z" stroke="none" fill="#000000" fill-rule="nonzero" /><path id="2455" transform="matrix(1 0 0 -1 0 842)" d="M335.1222 462.3657L336.0812 462.3657L336.0812 465.2457L335.1222 465.2457z" stroke="none" fill="#000000" fill-rule="nonzero" /><path id="2456" transform="matrix(1 0 0 -1 0 842)" d="M337.0422 462.3657L338.0022 462.3657L338.0022 463.3257L337.0422 463.3257z" stroke="none" fill="#000000" fill-rule="nonzero" /><path id="2457" transform="matrix(1 0 0 -1 0 842)" d="M27.0822 404.7657L257.7222 404.7657L257.7222 405.7257L27.0822 405.7257z" stroke="none" fill="#000000" fill-rule="nonzero" /><path id="2458" transform="matrix(1 0 0 -1 0 842)" d="M27.0822 402.8457L257.7222 402.8457L257.7222 403.8057L27.0822 403.8057z" stroke="none" fill="#000000" fill-rule="nonzero" /><path id="2459" transform="matrix(1 0 0 -1 0 842)" d="M337.0422 404.7657L338.0022 404.7657L338.0022 405.7257L337.0422 405.7257z" stroke="none" fill="#000000" fill-rule="nonzero" /><path id="2460" transform="matrix(1 0 0 -1 0 842)" d="M335.1222 402.8457L338.0022 402.8457L338.0022 403.8057L335.1222 403.8057z" stroke="none" fill="#000000" fill-rule="nonzero" /><path id="2461" transform="matrix(1 0 0 -1 0 842)" d="M551.0022 488.4057L551.9622 488.4057L551.9622 571.9257L551.0022 571.9257z" stroke="none" fill="#000000" fill-rule="nonzero" /><path id="2462" transform="matrix(1 0 0 -1 0 842)" d="M552.9222 488.4057L553.8812 488.4057L553.8812 571.9257L552.9222 571.9257z" stroke="none" fill="#000000" fill-rule="nonzero" /><path id="2463" transform="matrix(1 0 0 -1 0 842)" d="M551.0022 462.3657L551.9622 462.3657L551.9622 463.3257L551.0022 463.3257z" stroke="none" fill="#000000" fill-rule="nonzero" /><path id="2464" transform="matrix(1 0 0 -1 0 842)" d="M552.9222 462.3657L553.8812 462.3657L553.8812 465.2457L552.9222 465.2457z" stroke="none" fill="#000000" fill-rule="nonzero" /><path id="2465" transform="matrix(1 0 0 -1 0 842)" d="M24.2022 405.7257L25.1622 405.7257L25.1622 462.3657L24.2022 462.3657z" stroke="none" fill="#000000" fill-rule="nonzero" /><path id="2466" transform="matrix(1 0 0 -1 0 842)" d="M26.1222 405.7257L27.0822 405.7257L27.0822 462.3657L26.1222 462.3657z" stroke="none" fill="#000000" fill-rule="nonzero" /><path id="2467" transform="matrix(1 0 0 -1 0 842)" d="M486.4422 636.4857L487.4022 636.4857L487.4022 648.1257L486.4422 648.1257z" stroke="none" fill="#000000" fill-rule="nonzero" /><path id="2468" transform="matrix(1 0 0 -1 0 842)" d="M488.3622 636.4857L489.3222 636.4857L489.3222 648.1257L488.3622 648.1257z" stroke="none" fill="#000000" fill-rule="nonzero" /><path id="2469" transform="matrix(1 0 0 -1 0 842)" d="M502.1622 668.4057L503.1212 668.4057L503.1212 680.7657L502.1622 680.7657z" stroke="none" fill="#000000" fill-rule="nonzero" /><path id="2470" transform="matrix(1 0 0 -1 0 842)" d="M504.0822 668.4057L505.0422 668.4057L505.0422 680.7657L504.0822 680.7657z" stroke="none" fill="#000000" fill-rule="nonzero" /><path id="2471" transform="matrix(1 0 0 -1 0 842)" d="M534.4422 594.3657L535.4022 594.3657L535.4022 616.2057L534.4422 616.2057z" stroke="none" fill="#000000" fill-rule="nonzero" /><path id="2472" transform="matrix(1 0 0 -1 0 842)" d="M536.3622 594.3657L537.3212 594.3657L537.3212 616.2057L536.3622 616.2057z" stroke="none" fill="#000000" fill-rule="nonzero" /><path id="2473" transform="matrix(1 0 0 -1 0 842)" d="M551.0022 405.7257L551.9622 405.7257L551.9622 462.3657L551.0022 462.3657z" stroke="none" fill="#000000" fill-rule="nonzero" /><path id="2474" transform="matrix(1 0 0 -1 0 842)" d="M552.9222 405.7257L553.8812 405.7257L553.8812 462.3657L552.9222 462.3657z" stroke="none" fill="#000000" fill-rule="nonzero" /><path id="2475" transform="matrix(1 0 0 -1 0 842)" d="M26.6022 368.2857L423.8022 368.2857L423.8022 369.2457L26.6022 369.2457z" stroke="none" fill="#000000" fill-rule="nonzero" /><path id="2476" transform="matrix(1 0 0 -1 0 842)" d="M335.1222 405.7257L336.0812 405.7257L336.0812 462.3657L335.1222 462.3657z" stroke="none" fill="#000000" fill-rule="nonzero" /><path id="2477" transform="matrix(1 0 0 -1 0 842)" d="M337.0422 405.7257L338.0022 405.7257L338.0022 462.3657L337.0422 462.3657z" stroke="none" fill="#000000" fill-rule="nonzero" /><path id="2478" transform="matrix(1 0 0 -1 0 842)" d="M423.8022 367.8057L425.7222 367.8057L425.7222 367.8057L425.7222 382.3257L425.7222 382.3257L423.8022 382.3257z" stroke="none" fill="#000000" fill-rule="evenodd" /><path id="2479" transform="matrix(1 0 0 -1 0 842)" d="M440.3622 367.8057L442.2822 367.8057L442.2822 367.8057L442.2822 382.3257L442.2822 382.3257L440.3622 382.3257z" stroke="none" fill="#000000" fill-rule="evenodd" /><path id="2480" transform="matrix(1 0 0 -1 0 842)" d="M456.9222 367.8057L458.8422 367.8057L458.8422 367.8057L458.8422 382.3257L458.8422 382.3257L456.9222 382.3257z" stroke="none" fill="#000000" fill-rule="evenodd" /><path id="2481" transform="matrix(1 0 0 -1 0 842)" d="M471.9222 367.8057L473.8422 367.8057L473.8422 367.8057L473.8422 382.3257L473.8422 382.3257L471.9222 382.3257z" stroke="none" fill="#000000" fill-rule="evenodd" /><path id="2482" transform="matrix(1 0 0 -1 0 842)" d="M486.9222 367.8057L488.8422 367.8057L488.8422 367.8057L488.8422 382.3257L488.8422 382.3257L486.9222 382.3257z" stroke="none" fill="#000000" fill-rule="evenodd" /><path id="2483" transform="matrix(1 0 0 -1 0 842)" d="M502.6422 367.8057L504.5622 367.8057L504.5622 367.8057L504.5622 382.3257L504.5622 382.3257L502.6422 382.3257z" stroke="none" fill="#000000" fill-rule="evenodd" /><path id="2484" transform="matrix(1 0 0 -1 0 842)" d="M518.3622 367.8057L520.2822 367.8057L520.2822 367.8057L520.2822 382.3257L520.2822 382.3257L518.3622 382.3257z" stroke="none" fill="#000000" fill-rule="evenodd" /><path id="2485" transform="matrix(1 0 0 -1 0 842)" d="M534.9222 367.8057L536.8422 367.8057L536.8422 367.8057L536.8422 382.3257L536.8422 382.3257L534.9222 382.3257z" stroke="none" fill="#000000" fill-rule="evenodd" /><path id="2486" transform="matrix(1 0 0 -1 0 842)" d="M26.6022 329.7657L335.6022 329.7657L335.6022 330.7257L26.6022 330.7257z" stroke="none" fill="#000000" fill-rule="nonzero" /><path id="2487" transform="matrix(1 0 0 -1 0 842)" d="M471.9222 329.2857L473.8422 329.2857L473.8422 329.2857L473.8422 342.3657L473.8422 342.3657L471.9222 342.3657z" stroke="none" fill="#000000" fill-rule="evenodd" /><path id="2488" transform="matrix(1 0 0 -1 0 842)" d="M486.9222 329.2857L488.8422 329.2857L488.8422 329.2857L488.8422 342.3657L488.8422 342.3657L486.9222 342.3657z" stroke="none" fill="#000000" fill-rule="evenodd" /><path id="2489" transform="matrix(1 0 0 -1 0 842)" d="M502.6422 329.2857L504.5622 329.2857L504.5622 329.2857L504.5622 342.3657L504.5622 342.3657L502.6422 342.3657z" stroke="none" fill="#000000" fill-rule="evenodd" /><path id="2490" transform="matrix(1 0 0 -1 0 842)" d="M518.3622 329.2857L520.2822 329.2857L520.2822 329.2857L520.2822 342.3657L520.2822 342.3657L518.3622 342.3657z" stroke="none" fill="#000000" fill-rule="evenodd" /><path id="2491" transform="matrix(1 0 0 -1 0 842)" d="M534.9222 329.2857L536.8422 329.2857L536.8422 329.2857L536.8422 342.3657L536.8422 342.3657L534.9222 342.3657z" stroke="none" fill="#000000" fill-rule="evenodd" /><path id="2492" transform="matrix(1 0 0 -1 0 842)" d="M26.6022 244.8057L471.9222 244.8057L471.9222 245.7657L26.6022 245.7657z" stroke="none" fill="#000000" fill-rule="nonzero" /><path id="2493" transform="matrix(1 0 0 -1 0 842)" d="M26.1222 404.7657L27.0822 404.7657L27.0822 405.7257L26.1222 405.7257z" stroke="none" fill="#000000" fill-rule="nonzero" /><path id="2494" transform="matrix(1 0 0 -1 0 842)" d="M24.2022 402.8457L25.1622 402.8457L25.1622 405.7257L24.2022 405.7257z" stroke="none" fill="#000000" fill-rule="nonzero" /><path id="2495" transform="matrix(1 0 0 -1 0 842)" d="M552.9222 402.8457L553.8812 402.8457L553.8812 405.7257L552.9222 405.7257z" stroke="none" fill="#000000" fill-rule="nonzero" /><path id="2496" transform="matrix(1 0 0 -1 0 842)" d="M551.0022 404.7657L551.9622 404.7657L551.9622 405.7257L551.0022 405.7257z" stroke="none" fill="#000000" fill-rule="nonzero" /><path id="2497" transform="matrix(1 0 0 -1 0 842)" d="M24.6822 178.9257L26.6022 178.9257L26.6022 178.9257L26.6022 384.2457L26.6022 384.2457L24.6822 384.2457z" stroke="none" fill="#000000" fill-rule="evenodd" /><path id="2498" transform="matrix(1 0 0 -1 0 842)" d="M292.6422 699.6057L293.6012 699.6057L293.6012 741.0057L292.6422 741.0057z" stroke="none" fill="#000000" fill-rule="nonzero" /><path id="2499" transform="matrix(1 0 0 -1 0 842)" d="M551.4822 178.9257L553.4022 178.9257L553.4022 178.9257L553.4022 382.3257L553.4022 382.3257L551.4822 382.3257z" stroke="none" fill="#000000" fill-rule="evenodd" /><path id="2500" transform="matrix(1 0 0 -1 0 842)" d="M90.8022 635.5257L91.76219 635.5257L91.76219 636.4857L90.8022 636.4857z" stroke="none" fill="#000000" fill-rule="nonzero" /><path id="2501" transform="matrix(1 0 0 -1 0 842)" d="M88.8822 633.6057L89.8412 633.6057L89.8412 636.4857L88.8822 636.4857z" stroke="none" fill="#000000" fill-rule="nonzero" /><path id="2502" transform="matrix(1 0 0 -1 0 842)" d="M259.6422 402.8457L260.6022 402.8457L260.6022 405.7257L259.6422 405.7257z" stroke="none" fill="#000000" fill-rule="nonzero" /><path id="2503" transform="matrix(1 0 0 -1 0 842)" d="M257.7222 404.7657L258.6812 404.7657L258.6812 405.7257L257.7222 405.7257z" stroke="none" fill="#000000" fill-rule="nonzero" /><path id="2504" transform="matrix(1 0 0 -1 0 842)" d="M337.0422 404.7657L338.0022 404.7657L338.0022 405.7257L337.0422 405.7257z" stroke="none" fill="#000000" fill-rule="nonzero" /><path id="2505" transform="matrix(1 0 0 -1 0 842)" d="M335.1222 402.8457L336.0812 402.8457L336.0812 405.7257L335.1222 405.7257z" stroke="none" fill="#000000" fill-rule="nonzero" /><path id="2506" transform="matrix(1 0 0 -1 0 842)" d="M488.3622 633.6057L489.3222 633.6057L489.3222 636.4857L488.3622 636.4857z" stroke="none" fill="#000000" fill-rule="nonzero" /><path id="2507" transform="matrix(1 0 0 -1 0 842)" d="M486.4422 635.5257L487.4022 635.5257L487.4022 636.4857L486.4422 636.4857z" stroke="none" fill="#000000" fill-rule="nonzero" /><path id="2508" transform="matrix(1 0 0 -1 0 842)" d="M504.0822 667.4457L505.0422 667.4457L505.0422 668.4058L504.0822 668.4058z" stroke="none" fill="#000000" fill-rule="nonzero" /><path id="2509" transform="matrix(1 0 0 -1 0 842)" d="M502.1622 665.5257L503.1212 665.5257L503.1212 668.4057L502.1622 668.4057z" stroke="none" fill="#000000" fill-rule="nonzero" /><path id="2510" transform="matrix(1 0 0 -1 0 842)" d="M88.8822 636.4857L89.8412 636.4857L89.8412 648.1257L88.8822 648.1257z" stroke="none" fill="#000000" fill-rule="nonzero" /><path id="2511" transform="matrix(1 0 0 -1 0 842)" d="M90.8022 636.4857L91.76219 636.4857L91.76219 648.1257L90.8022 648.1257z" stroke="none" fill="#000000" fill-rule="nonzero" /><path id="2512" transform="matrix(1 0 0 -1 0 842)" d="M257.7222 405.7257L258.6812 405.7257L258.6812 462.3657L257.7222 462.3657z" stroke="none" fill="#000000" fill-rule="nonzero" /><path id="2513" transform="matrix(1 0 0 -1 0 842)" d="M259.6422 405.7257L260.6022 405.7257L260.6022 462.3657L259.6422 462.3657z" stroke="none" fill="#000000" fill-rule="nonzero" /><path id="2514" transform="matrix(1 0 0 -1 0 842)" d="M335.6022 329.2857L337.5222 329.2857L337.5222 329.2857L337.5222 344.2857L337.5222 344.2857L335.6022 344.2857z" stroke="none" fill="#000000" fill-rule="evenodd" /><path id="2515" transform="matrix(1 0 0 -1 0 842)" d="M486.9222 244.3257L488.8422 244.3257L488.8422 244.3257L488.8422 258.8457L488.8422 258.8457L486.9222 258.8457z" stroke="none" fill="#000000" fill-rule="evenodd" /><path id="2516" transform="matrix(1 0 0 -1 0 842)" d="M502.6422 244.3257L504.5622 244.3257L504.5622 244.3257L504.5622 258.8457L504.5622 258.8457L502.6422 258.8457z" stroke="none" fill="#000000" fill-rule="evenodd" /><path id="2517" transform="matrix(1 0 0 -1 0 842)" d="M40.2822 593.4057L41.2412 593.4057L41.2412 594.3657L40.2822 594.3657z" stroke="none" fill="#000000" fill-rule="nonzero" /><path id="2518" transform="matrix(1 0 0 -1 0 842)" d="M38.3622 591.4857L39.3222 591.4857L39.3222 594.3657L38.3622 594.3657z" stroke="none" fill="#000000" fill-rule="nonzero" /><path id="2519" transform="matrix(1 0 0 -1 0 842)" d="M536.3622 591.4857L537.3212 591.4857L537.3212 594.3657L536.3622 594.3657z" stroke="none" fill="#000000" fill-rule="nonzero" /><path id="2520" transform="matrix(1 0 0 -1 0 842)" d="M534.4422 593.4057L535.4022 593.4057L535.4022 594.3657L534.4422 594.3657z" stroke="none" fill="#000000" fill-rule="nonzero" /><path id="2521" transform="matrix(1 0 0 -1 0 842)" d="M38.3622 594.3657L39.3222 594.3657L39.3222 616.2057L38.3622 616.2057z" stroke="none" fill="#000000" fill-rule="nonzero" /><path id="2522" transform="matrix(1 0 0 -1 0 842)" d="M40.2822 594.3657L41.2412 594.3657L41.2412 616.2057L40.2822 616.2057z" stroke="none" fill="#000000" fill-rule="nonzero" /><path id="2523" transform="matrix(1 0 0 -1 0 842)" d="M534.9222 244.3257L536.8422 244.3257L536.8422 244.3257L536.8422 258.8457L536.8422 258.8457L534.9222 258.8457z" stroke="none" fill="#000000" fill-rule="evenodd" /><path id="2524" transform="matrix(1 0 0 -1 0 842)" d="M423.8022 329.2857L425.7222 329.2857L425.7222 329.2857L425.7222 342.3657L425.7222 342.3657L423.8022 342.3657z" stroke="none" fill="#000000" fill-rule="evenodd" /><path id="2525" transform="matrix(1 0 0 -1 0 842)" d="M440.3622 329.2857L442.2822 329.2857L442.2822 329.2857L442.2822 342.3657L442.2822 342.3657L440.3622 342.3657z" stroke="none" fill="#000000" fill-rule="evenodd" /><path id="2526" transform="matrix(1 0 0 -1 0 842)" d="M456.9222 329.2857L458.8422 329.2857L458.8422 329.2857L458.8422 342.3657L458.8422 342.3657L456.9222 342.3657z" stroke="none" fill="#000000" fill-rule="evenodd" /><path id="2527" transform="matrix(1 0 0 -1 0 842)" d="M471.9222 244.3257L473.8422 244.3257L473.8422 244.3257L473.8422 260.7657L473.8422 260.7657L471.9222 260.7657z" stroke="none" fill="#000000" fill-rule="evenodd" /><path id="2528" transform="matrix(1 0 0 -1 0 842)" d="M518.3622 244.3257L520.2822 244.3257L520.2822 244.3257L520.2822 258.8457L520.2822 258.8457L518.3622 258.8457z" stroke="none" fill="#000000" fill-rule="evenodd" /><path id="2529" transform="matrix(1 0 0 -1 0 842)" d="M352.1622 329.2857L354.0822 329.2857L354.0822 329.2857L354.0822 342.3657L354.0822 342.3657L352.1622 342.3657z" stroke="none" fill="#000000" fill-rule="evenodd" /><path id="2530" transform="matrix(1 0 0 -1 0 842)" d="M364.7622 329.2857L366.6822 329.2857L366.6822 329.2857L366.6822 342.3657L366.6822 342.3657L364.7622 342.3657z" stroke="none" fill="#000000" fill-rule="evenodd" /><path id="2531" transform="matrix(1 0 0 -1 0 842)" d="M380.4822 329.2857L382.4022 329.2857L382.4022 329.2857L382.4022 342.3657L382.4022 342.3657L380.4822 342.3657z" stroke="none" fill="#000000" fill-rule="evenodd" /><path id="2532" transform="matrix(1 0 0 -1 0 842)" d="M394.6422 329.2857L396.5622 329.2857L396.5622 329.2857L396.5622 342.3657L396.5622 342.3657L394.6422 342.3657z" stroke="none" fill="#000000" fill-rule="evenodd" /><path id="2533" transform="matrix(1 0 0 -1 0 842)" d="M408.8022 329.2857L410.7222 329.2857L410.7222 329.2857L410.7222 342.3657L410.7222 342.3657L408.8022 342.3657z" stroke="none" fill="#000000" fill-rule="evenodd" /><path id="2534" transform="matrix(1 0 0 -1 0 842)" d="M25.6422 785.0457L552.5622 785.0457L552.5622 785.0457L552.5622 786.9657L552.5622 786.9657L25.6422 786.9657z" stroke="none" fill="#000000" fill-rule="evenodd" /><path id="2535" transform="matrix(1 0 0 -1 0 842)" d="M551.0022 741.0057L551.9622 741.0057L551.9622 741.9658L551.0022 741.9658z" stroke="none" fill="#000000" fill-rule="nonzero" /><path id="2536" transform="matrix(1 0 0 -1 0 842)" d="M551.0022 742.9257L553.8822 742.9257L553.8822 743.8847L551.0022 743.8847z" stroke="none" fill="#000000" fill-rule="nonzero" /><path id="2537" transform="matrix(1 0 0 -1 0 842)" d="M27.0822 742.9257L551.0022 742.9257L551.0022 743.8847L27.0822 743.8847z" stroke="none" fill="#000000" fill-rule="nonzero" /><path id="2538" transform="matrix(1 0 0 -1 0 842)" d="M27.0822 741.0057L551.0022 741.0057L551.0022 741.9658L27.0822 741.9658z" stroke="none" fill="#000000" fill-rule="nonzero" /><path id="2539" transform="matrix(1 0 0 -1 0 842)" d="M551.0022 696.7257L553.8822 696.7257L553.8822 697.6857L551.0022 697.6857z" stroke="none" fill="#000000" fill-rule="nonzero" /><path id="2540" transform="matrix(1 0 0 -1 0 842)" d="M551.0022 698.6457L551.9622 698.6457L551.9622 699.6047L551.0022 699.6047z" stroke="none" fill="#000000" fill-rule="nonzero" /><path id="2541" transform="matrix(1 0 0 -1 0 842)" d="M27.0822 698.6457L551.0022 698.6457L551.0022 699.6047L27.0822 699.6047z" stroke="none" fill="#000000" fill-rule="nonzero" /><path id="2542" transform="matrix(1 0 0 -1 0 842)" d="M27.0822 696.7257L551.0022 696.7257L551.0022 697.6857L27.0822 697.6857z" stroke="none" fill="#000000" fill-rule="nonzero" /><path id="2543" transform="matrix(1 0 0 -1 0 842)" d="M551.0022 680.7657L551.9622 680.7657L551.9622 681.7257L551.0022 681.7257z" stroke="none" fill="#000000" fill-rule="nonzero" /><path id="2544" transform="matrix(1 0 0 -1 0 842)" d="M551.0022 682.6857L553.8822 682.6857L553.8822 683.6458L551.0022 683.6458z" stroke="none" fill="#000000" fill-rule="nonzero" /><path id="2545" transform="matrix(1 0 0 -1 0 842)" d="M505.0422 682.6857L551.0012 682.6857L551.0012 683.6458L505.0422 683.6458z" stroke="none" fill="#000000" fill-rule="nonzero" /><path id="2546" transform="matrix(1 0 0 -1 0 842)" d="M505.0422 680.7657L551.0012 680.7657L551.0012 681.7257L505.0422 681.7257z" stroke="none" fill="#000000" fill-rule="nonzero" /><path id="2547" transform="matrix(1 0 0 -1 0 842)" d="M551.0022 665.5257L553.8822 665.5257L553.8822 666.4847L551.0022 666.4847z" stroke="none" fill="#000000" fill-rule="nonzero" /><path id="2548" transform="matrix(1 0 0 -1 0 842)" d="M551.0022 667.4457L551.9622 667.4457L551.9622 668.4058L551.0022 668.4058z" stroke="none" fill="#000000" fill-rule="nonzero" /><path id="2549" transform="matrix(1 0 0 -1 0 842)" d="M505.0422 667.4457L551.0012 667.4457L551.0012 668.4058L505.0422 668.4058z" stroke="none" fill="#000000" fill-rule="nonzero" /><path id="2550" transform="matrix(1 0 0 -1 0 842)" d="M505.0422 665.5257L551.0012 665.5257L551.0012 666.4847L505.0422 666.4847z" stroke="none" fill="#000000" fill-rule="nonzero" /><path id="2551" transform="matrix(1 0 0 -1 0 842)" d="M486.4422 648.1257L487.4022 648.1257L487.4022 649.0858L486.4422 649.0858z" stroke="none" fill="#000000" fill-rule="nonzero" /><path id="2552" transform="matrix(1 0 0 -1 0 842)" d="M486.4422 650.0457L489.3222 650.0457L489.3222 651.0047L486.4422 651.0047z" stroke="none" fill="#000000" fill-rule="nonzero" /><path id="2553" transform="matrix(1 0 0 -1 0 842)" d="M338.0022 650.0457L486.4422 650.0457L486.4422 651.0047L338.0022 651.0047z" stroke="none" fill="#000000" fill-rule="nonzero" /><path id="2554" transform="matrix(1 0 0 -1 0 842)" d="M338.0022 648.1257L486.4422 648.1257L486.4422 649.0858L338.0022 649.0858z" stroke="none" fill="#000000" fill-rule="nonzero" /><path id="2555" transform="matrix(1 0 0 -1 0 842)" d="M486.4422 633.6057L489.3222 633.6057L489.3222 634.5657L486.4422 634.5657z" stroke="none" fill="#000000" fill-rule="nonzero" /><path id="2556" transform="matrix(1 0 0 -1 0 842)" d="M486.4422 635.5257L487.4022 635.5257L487.4022 636.4857L486.4422 636.4857z" stroke="none" fill="#000000" fill-rule="nonzero" /><path id="2557" transform="matrix(1 0 0 -1 0 842)" d="M338.0022 635.5257L486.4422 635.5257L486.4422 636.4857L338.0022 636.4857z" stroke="none" fill="#000000" fill-rule="nonzero" /><path id="2558" transform="matrix(1 0 0 -1 0 842)" d="M338.0022 633.6057L486.4422 633.6057L486.4422 634.5657L338.0022 634.5657z" stroke="none" fill="#000000" fill-rule="nonzero" /><path id="2559" transform="matrix(1 0 0 -1 0 842)" d="M534.4422 616.2057L535.4022 616.2057L535.4022 617.1647L534.4422 617.1647z" stroke="none" fill="#000000" fill-rule="nonzero" /><path id="2560" transform="matrix(1 0 0 -1 0 842)" d="M534.4422 618.1257L537.3222 618.1257L537.3222 619.0858L534.4422 619.0858z" stroke="none" fill="#000000" fill-rule="nonzero" /><path id="2561" transform="matrix(1 0 0 -1 0 842)" d="M338.0022 618.1257L534.4412 618.1257L534.4412 619.0858L338.0022 619.0858z" stroke="none" fill="#000000" fill-rule="nonzero" /><path id="2562" transform="matrix(1 0 0 -1 0 842)" d="M338.0022 616.2057L534.4412 616.2057L534.4412 617.1647L338.0022 617.1647z" stroke="none" fill="#000000" fill-rule="nonzero" /><path id="2563" transform="matrix(1 0 0 -1 0 842)" d="M534.4422 591.4857L537.3222 591.4857L537.3222 592.4457L534.4422 592.4457z" stroke="none" fill="#000000" fill-rule="nonzero" /><path id="2564" transform="matrix(1 0 0 -1 0 842)" d="M534.4422 593.4057L535.4022 593.4057L535.4022 594.3657L534.4422 594.3657z" stroke="none" fill="#000000" fill-rule="nonzero" /><path id="2565" transform="matrix(1 0 0 -1 0 842)" d="M338.0022 593.4057L534.4412 593.4057L534.4412 594.3657L338.0022 594.3657z" stroke="none" fill="#000000" fill-rule="nonzero" /><path id="2566" transform="matrix(1 0 0 -1 0 842)" d="M338.0022 591.4857L534.4412 591.4857L534.4412 592.4457L338.0022 592.4457z" stroke="none" fill="#000000" fill-rule="nonzero" /><path id="2567" transform="matrix(1 0 0 -1 0 842)" d="M551.0022 571.9257L551.9622 571.9257L551.9622 572.8847L551.0022 572.8847z" stroke="none" fill="#000000" fill-rule="nonzero" /><path id="2568" transform="matrix(1 0 0 -1 0 842)" d="M551.0022 573.8457L553.8822 573.8457L553.8822 574.8057L551.0022 574.8057z" stroke="none" fill="#000000" fill-rule="nonzero" /><path id="2569" transform="matrix(1 0 0 -1 0 842)" d="M27.0822 573.8457L551.0022 573.8457L551.0022 574.8057L27.0822 574.8057z" stroke="none" fill="#000000" fill-rule="nonzero" /><path id="2570" transform="matrix(1 0 0 -1 0 842)" d="M27.0822 571.9257L551.0022 571.9257L551.0022 572.8847L27.0822 572.8847z" stroke="none" fill="#000000" fill-rule="nonzero" /><path id="2571" transform="matrix(1 0 0 -1 0 842)" d="M551.0022 485.5257L553.8822 485.5257L553.8822 486.4847L551.0022 486.4847z" stroke="none" fill="#000000" fill-rule="nonzero" /><path id="2572" transform="matrix(1 0 0 -1 0 842)" d="M551.0022 487.4457L551.9622 487.4457L551.9622 488.4057L551.0022 488.4057z" stroke="none" fill="#000000" fill-rule="nonzero" /><path id="2573" transform="matrix(1 0 0 -1 0 842)" d="M27.0822 487.4457L551.0022 487.4457L551.0022 488.4057L27.0822 488.4057z" stroke="none" fill="#000000" fill-rule="nonzero" /><path id="2574" transform="matrix(1 0 0 -1 0 842)" d="M27.0822 485.5257L551.0022 485.5257L551.0022 486.4847L27.0822 486.4847z" stroke="none" fill="#000000" fill-rule="nonzero" /><path id="2575" transform="matrix(1 0 0 -1 0 842)" d="M551.0022 462.3657L551.9622 462.3657L551.9622 463.3257L551.0022 463.3257z" stroke="none" fill="#000000" fill-rule="nonzero" /><path id="2576" transform="matrix(1 0 0 -1 0 842)" d="M551.0022 464.2857L553.8822 464.2857L553.8822 465.2447L551.0022 465.2447z" stroke="none" fill="#000000" fill-rule="nonzero" /><path id="2577" transform="matrix(1 0 0 -1 0 842)" d="M338.0022 464.2857L551.0012 464.2857L551.0012 465.2447L338.0022 465.2447z" stroke="none" fill="#000000" fill-rule="nonzero" /><path id="2578" transform="matrix(1 0 0 -1 0 842)" d="M338.0022 462.3657L551.0012 462.3657L551.0012 463.3257L338.0022 463.3257z" stroke="none" fill="#000000" fill-rule="nonzero" /><path id="2579" transform="matrix(1 0 0 -1 0 842)" d="M551.0022 402.8457L553.8822 402.8457L553.8822 403.8057L551.0022 403.8057z" stroke="none" fill="#000000" fill-rule="nonzero" /><path id="2580" transform="matrix(1 0 0 -1 0 842)" d="M551.0022 404.7657L551.9622 404.7657L551.9622 405.7257L551.0022 405.7257z" stroke="none" fill="#000000" fill-rule="nonzero" /><path id="2581" transform="matrix(1 0 0 -1 0 842)" d="M338.0022 404.7657L551.0012 404.7657L551.0012 405.7257L338.0022 405.7257z" stroke="none" fill="#000000" fill-rule="nonzero" /><path id="2582" transform="matrix(1 0 0 -1 0 842)" d="M338.0022 402.8457L551.0012 402.8457L551.0012 403.8057L338.0022 403.8057z" stroke="none" fill="#000000" fill-rule="nonzero" /><path id="2583" transform="matrix(1 0 0 -1 0 842)" d="M26.6022 382.3257L553.4022 382.3257L553.4022 382.3257L553.4022 384.2457L553.4022 384.2457L26.6022 384.2457z" stroke="none" fill="#000000" fill-rule="evenodd" /><path id="2584" transform="matrix(1 0 0 -1 0 842)" d="M425.7222 367.8057L553.4022 367.8057L553.4022 367.8057L553.4022 369.7257L553.4022 369.7257L425.7222 369.7257z" stroke="none" fill="#000000" fill-rule="evenodd" /><path id="2585" transform="matrix(1 0 0 -1 0 842)" d="M337.5222 342.3657L553.4022 342.3657L553.4022 342.3657L553.4022 344.2857L553.4022 344.2857L337.5222 344.2857z" stroke="none" fill="#000000" fill-rule="evenodd" /><path id="2586" transform="matrix(1 0 0 -1 0 842)" d="M337.5222 329.2857L553.4022 329.2857L553.4022 329.2857L553.4022 331.2057L553.4022 331.2057L337.5222 331.2057z" stroke="none" fill="#000000" fill-rule="evenodd" /><path id="2587" transform="matrix(1 0 0 -1 0 842)" d="M26.6022 285.4857L551.4822 285.4857L551.4822 286.4457L26.6022 286.4457z" stroke="none" fill="#000000" fill-rule="nonzero" /><path id="2588" transform="matrix(1 0 0 -1 0 842)" d="M473.8422 258.8457L553.4022 258.8457L553.4022 258.8457L553.4022 260.7657L553.4022 260.7657L473.8422 260.7657z" stroke="none" fill="#000000" fill-rule="evenodd" /><path id="2589" transform="matrix(1 0 0 -1 0 842)" d="M473.8422 244.3257L553.4022 244.3257L553.4022 244.3257L553.4022 246.2457L553.4022 246.2457L473.8422 246.2457z" stroke="none" fill="#000000" fill-rule="evenodd" /><path id="2590" transform="matrix(1 0 0 -1 0 842)" d="M26.6022 178.9257L553.4022 178.9257L553.4022 178.9257L553.4022 180.8457L553.4022 180.8457L26.6022 180.8457z" stroke="none" fill="#000000" fill-rule="evenodd" /><path id="2591" transform="matrix(1 0 0 -1 0 842)" d="M365.7222 163.4457L536.0023 163.4457L536.0023 164.4057L365.7222 164.4057z" stroke="none" fill="#000000" fill-rule="nonzero" /></g></g></svg>