<svg xmlns="http://www.w3.org/2000/svg" xmlns:xlink="http://www.w3.org/1999/xlink" id="body_2" preserveAspectRatio="xMinYMin meet" viewBox="0 0 1123 793"><defs><clipPath id="1"><path id="" clip-rule="evenodd" transform="matrix(1 0 0 1 0 0)" d="M0 595L0 -0.2755737L0 -0.2755737L842.485 -0.2755737L842.485 -0.2755737L842.485 595L842.485 595L0 595z" /></clipPath><clipPath id="2"><path id="" clip-rule="evenodd" transform="matrix(1 0 0 1 0 0)" d="M0 595L842.4 595L842.4 595L842.4 -0.2000122L842.4 -0.2000122L0 -0.2000122z" /></clipPath></defs><g transform="matrix(1.333333 0 0 1.333333 0 0)"><g clip-path="url(#1)"><g clip-path="url(#2)"><path id="1" transform="matrix(1 0 0 -1 0 595)" d="M95.7 527L735.3 527" stroke="#000000" stroke-width="1" fill="none" /><path id="2" transform="matrix(1 0 0 -1 0 595)" d="M95.7 492.7L735.3 492.7" stroke="#000000" stroke-width="1" fill="none" /><path id="3" transform="matrix(1 0 0 -1 0 595)" d="M95.7 470.7L735.3 470.7" stroke="#000000" stroke-width="1" fill="none" /><path id="4" transform="matrix(1 0 0 -1 0 595)" d="M95.7 419.3L735.3 419.3" stroke="#000000" stroke-width="1" fill="none" /><path id="5" transform="matrix(1 0 0 -1 0 595)" d="M95.7 386.4L735.3 386.4" stroke="#000000" stroke-width="1" fill="none" /><path id="6" transform="matrix(1 0 0 -1 0 595)" d="M95.7 349L735.3 349" stroke="#000000" stroke-width="1" fill="none" /><path id="7" transform="matrix(1 0 0 -1 0 595)" d="M95.7 313.9L735.3 313.9" stroke="#000000" stroke-width="1" fill="none" /><path id="8" transform="matrix(1 0 0 -1 0 595)" d="M95.7 281L735.3 281" stroke="#000000" stroke-width="1" fill="none" /><path id="9" transform="matrix(1 0 0 -1 0 595)" d="M95.7 252.2L735.3 252.2" stroke="#000000" stroke-width="1" fill="none" /><path id="10" transform="matrix(1 0 0 -1 0 595)" d="M95.7 216.8L735.3 216.8" stroke="#000000" stroke-width="1" fill="none" /><path id="11" transform="matrix(1 0 0 -1 0 595)" d="M95.7 179.8L735.3 179.8" stroke="#000000" stroke-width="1" fill="none" /><path id="12" transform="matrix(1 0 0 -1 0 595)" d="M95.7 142.4L735.3 142.4" stroke="#000000" stroke-width="1" fill="none" /><path id="13" transform="matrix(1 0 0 -1 0 595)" d="M95.7 108.1L735.3 108.1" stroke="#000000" stroke-width="1" fill="none" /><path id="14" transform="matrix(1 0 0 -1 0 595)" d="M96.2 527.5L96.2 107.6" stroke="#000000" stroke-width="1" fill="none" /><path id="15" transform="matrix(1 0 0 -1 0 595)" d="M457.9 527.5L457.9 107.6" stroke="#000000" stroke-width="1" fill="none" /><path id="16" transform="matrix(1 0 0 -1 0 595)" d="M514.6 527.5L514.6 107.6" stroke="#000000" stroke-width="1" fill="none" /><path id="17" transform="matrix(1 0 0 -1 0 595)" d="M604.5 527.5L604.5 107.6" stroke="#000000" stroke-width="1" fill="none" /><path id="18" transform="matrix(1 0 0 -1 0 595)" d="M734.8 527.5L734.8 107.6" stroke="#000000" stroke-width="1" fill="none" /></g></g></g></svg>