<svg xmlns="http://www.w3.org/2000/svg" xmlns:xlink="http://www.w3.org/1999/xlink" id="body_2" preserveAspectRatio="xMinYMin meet" viewBox="0 0 1123 792"><defs><clipPath id="1"><path id="" clip-rule="evenodd" transform="matrix(1 0 0 1 0 0)" d="M0 594L0 -0.9597778L0 -0.9597778L842.0403 -0.9597778L842.0403 -0.9597778L842.0403 594L842.0403 594L0 594z" /></clipPath><clipPath id="2"><path id="" clip-rule="evenodd" transform="matrix(1 0 0 1 0 0)" d="M37.7943 118.1622L779.8743 118.1622L779.8743 118.1622L779.8743 65.36224L779.8743 65.36224L37.7943 65.36224z" /></clipPath><clipPath id="3"><path id="" clip-rule="evenodd" transform="matrix(1 0 0 1 0 0)" d="M262.5543 118.1622L300.2343 118.1622L300.2343 118.1622L300.2343 65.36224L300.2343 65.36224L262.5543 65.36224z" /></clipPath><clipPath id="4"><path id="" clip-rule="evenodd" transform="matrix(1 0 0 1 0 0)" d="M301.1943 118.1622L340.4343 118.1622L340.4343 118.1622L340.4343 65.36224L340.4343 65.36224L301.1943 65.36224z" /></clipPath><clipPath id="5"><path id="" clip-rule="evenodd" transform="matrix(1 0 0 1 0 0)" d="M341.3943 118.1622L421.6743 118.1622L421.6743 118.1622L421.6743 65.36224L421.6743 65.36224L341.3943 65.36224z" /></clipPath><clipPath id="6"><path id="" clip-rule="evenodd" transform="matrix(1 0 0 1 0 0)" d="M422.6343 118.1622L502.9143 118.1622L502.9143 118.1622L502.9143 65.36224L502.9143 65.36224L422.6343 65.36224z" /></clipPath><clipPath id="7"><path id="" clip-rule="evenodd" transform="matrix(1 0 0 1 0 0)" d="M503.8743 118.1622L554.1533 118.1622L554.1533 118.1622L554.1533 65.36224L554.1533 65.36224L503.8743 65.36224z" /></clipPath><clipPath id="8"><path id="" clip-rule="evenodd" transform="matrix(1 0 0 1 0 0)" d="M37.7943 118.1622L779.8743 118.1622L779.8743 118.1622L779.8743 65.36224L779.8743 65.36224L37.7943 65.36224z" /></clipPath><clipPath id="9"><path id="" clip-rule="evenodd" transform="matrix(1 0 0 1 0 0)" d="M37.7943 183.4422L261.5943 183.4422L261.5943 183.4422L261.5943 139.4022L261.5943 139.4022L37.7943 139.4022z" /></clipPath><clipPath id="10"><path id="" clip-rule="evenodd" transform="matrix(1 0 0 1 0 0)" d="M37.7943 183.4422L261.5943 183.4422L261.5943 183.4422L261.5943 139.4022L261.5943 139.4022L37.7943 139.4022z" /></clipPath><clipPath id="11"><path id="" clip-rule="evenodd" transform="matrix(1 0 0 1 0 0)" d="M37.7943 183.4422L261.5943 183.4422L261.5943 183.4422L261.5943 139.4022L261.5943 139.4022L37.7943 139.4022z" /></clipPath><clipPath id="12"><path id="" clip-rule="evenodd" transform="matrix(1 0 0 1 0 0)" d="M37.7943 183.4422L261.5943 183.4422L261.5943 183.4422L261.5943 139.4022L261.5943 139.4022L37.7943 139.4022z" /></clipPath><clipPath id="13"><path id="" clip-rule="evenodd" transform="matrix(1 0 0 1 0 0)" d="M37.7943 183.4422L261.5943 183.4422L261.5943 183.4422L261.5943 139.4022L261.5943 139.4022L37.7943 139.4022z" /></clipPath><clipPath id="14"><path id="" clip-rule="evenodd" transform="matrix(1 0 0 1 0 0)" d="M37.7943 183.4422L261.5943 183.4422L261.5943 183.4422L261.5943 139.4022L261.5943 139.4022L37.7943 139.4022z" /></clipPath><clipPath id="15"><path id="" clip-rule="evenodd" transform="matrix(1 0 0 1 0 0)" d="M37.7943 183.4422L261.5943 183.4422L261.5943 183.4422L261.5943 139.4022L261.5943 139.4022L37.7943 139.4022z" /></clipPath><clipPath id="16"><path id="" clip-rule="evenodd" transform="matrix(1 0 0 1 0 0)" d="M37.7943 183.4422L261.5943 183.4422L261.5943 183.4422L261.5943 139.4022L261.5943 139.4022L37.7943 139.4022z" /></clipPath><clipPath id="17"><path id="" clip-rule="evenodd" transform="matrix(1 0 0 1 0 0)" d="M37.7943 183.4422L261.5943 183.4422L261.5943 183.4422L261.5943 139.4022L261.5943 139.4022L37.7943 139.4022z" /></clipPath><clipPath id="18"><path id="" clip-rule="evenodd" transform="matrix(1 0 0 1 0 0)" d="M37.7943 213.2022L261.5943 213.2022L261.5943 213.2022L261.5943 184.4022L261.5943 184.4022L37.7943 184.4022z" /></clipPath><clipPath id="19"><path id="" clip-rule="evenodd" transform="matrix(1 0 0 1 0 0)" d="M37.7943 213.2022L261.5943 213.2022L261.5943 213.2022L261.5943 184.4022L261.5943 184.4022L37.7943 184.4022z" /></clipPath><clipPath id="20"><path id="" clip-rule="evenodd" transform="matrix(1 0 0 1 0 0)" d="M37.7943 213.2022L261.5943 213.2022L261.5943 213.2022L261.5943 184.4022L261.5943 184.4022L37.7943 184.4022z" /></clipPath><clipPath id="21"><path id="" clip-rule="evenodd" transform="matrix(1 0 0 1 0 0)" d="M37.7943 213.2022L261.5943 213.2022L261.5943 213.2022L261.5943 184.4022L261.5943 184.4022L37.7943 184.4022z" /></clipPath><clipPath id="22"><path id="" clip-rule="evenodd" transform="matrix(1 0 0 1 0 0)" d="M37.7943 213.2022L261.5943 213.2022L261.5943 213.2022L261.5943 184.4022L261.5943 184.4022L37.7943 184.4022z" /></clipPath><clipPath id="23"><path id="" clip-rule="evenodd" transform="matrix(1 0 0 1 0 0)" d="M37.7943 213.2022L261.5943 213.2022L261.5943 213.2022L261.5943 184.4022L261.5943 184.4022L37.7943 184.4022z" /></clipPath><clipPath id="24"><path id="" clip-rule="evenodd" transform="matrix(1 0 0 1 0 0)" d="M37.7943 213.2022L261.5943 213.2022L261.5943 213.2022L261.5943 184.4022L261.5943 184.4022L37.7943 184.4022z" /></clipPath><clipPath id="25"><path id="" clip-rule="evenodd" transform="matrix(1 0 0 1 0 0)" d="M37.7943 362.0022L261.5943 362.0022L261.5943 362.0022L261.5943 331.0422L261.5943 331.0422L37.7943 331.0422z" /></clipPath><clipPath id="26"><path id="" clip-rule="evenodd" transform="matrix(1 0 0 1 0 0)" d="M37.7943 362.0022L261.5943 362.0022L261.5943 362.0022L261.5943 331.0422L261.5943 331.0422L37.7943 331.0422z" /></clipPath><clipPath id="27"><path id="" clip-rule="evenodd" transform="matrix(1 0 0 1 0 0)" d="M37.7943 362.0022L261.5943 362.0022L261.5943 362.0022L261.5943 331.0422L261.5943 331.0422L37.7943 331.0422z" /></clipPath><clipPath id="28"><path id="" clip-rule="evenodd" transform="matrix(1 0 0 1 0 0)" d="M37.7943 431.7222L261.5943 431.7222L261.5943 431.7222L261.5943 396.3222L261.5943 396.3222L37.7943 396.3222z" /></clipPath><clipPath id="29"><path id="" clip-rule="evenodd" transform="matrix(1 0 0 1 0 0)" d="M37.7943 431.7222L261.5943 431.7222L261.5943 431.7222L261.5943 396.3222L261.5943 396.3222L37.7943 396.3222z" /></clipPath><clipPath id="30"><path id="" clip-rule="evenodd" transform="matrix(1 0 0 1 0 0)" d="M37.7943 431.7222L261.5943 431.7222L261.5943 431.7222L261.5943 396.3222L261.5943 396.3222L37.7943 396.3222z" /></clipPath><clipPath id="31"><path id="" clip-rule="evenodd" transform="matrix(1 0 0 1 0 0)" d="M37.7943 431.7222L261.5943 431.7222L261.5943 431.7222L261.5943 396.3222L261.5943 396.3222L37.7943 396.3222z" /></clipPath><clipPath id="32"><path id="" clip-rule="evenodd" transform="matrix(1 0 0 1 0 0)" d="M37.7943 468.3222L779.8743 468.3222L779.8743 468.3222L779.8743 53.72223L779.8743 53.72223L37.7943 53.72223z" /></clipPath><clipPath id="33"><path id="" clip-rule="evenodd" transform="matrix(1 0 0 1 0 0)" d="M37.7943 468.3222L779.8743 468.3222L779.8743 468.3222L779.8743 53.72223L779.8743 53.72223L37.7943 53.72223z" /></clipPath><clipPath id="34"><path id="" clip-rule="evenodd" transform="matrix(1 0 0 1 0 0)" d="M37.7943 468.3222L779.8743 468.3222L779.8743 468.3222L779.8743 53.72223L779.8743 53.72223L37.7943 53.72223z" /></clipPath><clipPath id="35"><path id="" clip-rule="evenodd" transform="matrix(1 0 0 1 0 0)" d="M37.7943 468.3222L779.8743 468.3222L779.8743 468.3222L779.8743 53.72223L779.8743 53.72223L37.7943 53.72223z" /></clipPath></defs><g transform="matrix(1.333333 0 0 1.333333 0 0)"><g clip-path="url(#1)"><g clip-path="url(#2)"></g><g clip-path="url(#3)"></g><g clip-path="url(#4)"></g><g clip-path="url(#5)"></g><g clip-path="url(#6)"></g><g clip-path="url(#7)"></g><g clip-path="url(#8)"></g><g clip-path="url(#9)"></g><g clip-path="url(#10)"></g><g clip-path="url(#11)"></g><g clip-path="url(#12)"></g><g clip-path="url(#13)"></g><g clip-path="url(#14)"></g><g clip-path="url(#15)"></g><g clip-path="url(#16)"></g><g clip-path="url(#17)"></g><g clip-path="url(#18)"></g><g clip-path="url(#19)"></g><g clip-path="url(#20)"></g><g clip-path="url(#21)"></g><g clip-path="url(#22)"></g><g clip-path="url(#23)"></g><g clip-path="url(#24)"></g><g clip-path="url(#25)"></g><g clip-path="url(#26)"></g><g clip-path="url(#27)"></g><g clip-path="url(#28)"></g><g clip-path="url(#29)"></g><g clip-path="url(#30)"></g><g clip-path="url(#31)"></g><g clip-path="url(#32)"></g><g clip-path="url(#33)"></g><g clip-path="url(#34)"></g><g clip-path="url(#35)"></g><path id="1106" transform="matrix(1 0 0 -1 0 594)" d="M36.8343 125.6778L37.7943 125.6778L37.7943 529.5978L36.8343 529.5978z" stroke="none" fill="#000000" fill-rule="nonzero" /><path id="1107" transform="matrix(1 0 0 -1 0 594)" d="M261.5943 125.6778L262.5533 125.6778L262.5533 528.6388L261.5943 528.6388z" stroke="none" fill="#000000" fill-rule="nonzero" /><path id="1108" transform="matrix(1 0 0 -1 0 594)" d="M300.2343 125.6778L301.1943 125.6778L301.1943 528.6388L300.2343 528.6388z" stroke="none" fill="#000000" fill-rule="nonzero" /><path id="1109" transform="matrix(1 0 0 -1 0 594)" d="M340.4343 125.6778L341.3933 125.6778L341.3933 528.6388L340.4343 528.6388z" stroke="none" fill="#000000" fill-rule="nonzero" /><path id="1110" transform="matrix(1 0 0 -1 0 594)" d="M421.6743 125.6778L422.6343 125.6778L422.6343 528.6388L421.6743 528.6388z" stroke="none" fill="#000000" fill-rule="nonzero" /><path id="1111" transform="matrix(1 0 0 -1 0 594)" d="M502.9143 125.6778L503.8743 125.6778L503.8743 528.6388L502.9143 528.6388z" stroke="none" fill="#000000" fill-rule="nonzero" /><path id="1112" transform="matrix(1 0 0 -1 0 594)" d="M554.1543 125.6778L555.1143 125.6778L555.1143 528.6388L554.1543 528.6388z" stroke="none" fill="#000000" fill-rule="nonzero" /><path id="1113" transform="matrix(1 0 0 -1 0 594)" d="M778.9143 125.6778L779.8733 125.6778L779.8733 528.6388L778.9143 528.6388z" stroke="none" fill="#000000" fill-rule="nonzero" /><path id="1114" transform="matrix(1 0 0 -1 0 594)" d="M37.7943 528.6378L779.8743 528.6378L779.8743 529.5967L37.7943 529.5967z" stroke="none" fill="#000000" fill-rule="nonzero" /><path id="1115" transform="matrix(1 0 0 -1 0 594)" d="M37.7943 474.8778L779.8743 474.8778L779.8743 475.8378L37.7943 475.8378z" stroke="none" fill="#000000" fill-rule="nonzero" /><path id="1116" transform="matrix(1 0 0 -1 0 594)" d="M37.7943 454.5978L779.8743 454.5978L779.8743 455.5578L37.7943 455.5578z" stroke="none" fill="#000000" fill-rule="nonzero" /><path id="1117" transform="matrix(1 0 0 -1 0 594)" d="M37.7943 409.5978L779.8743 409.5978L779.8743 410.5578L37.7943 410.5578z" stroke="none" fill="#000000" fill-rule="nonzero" /><path id="1118" transform="matrix(1 0 0 -1 0 594)" d="M37.7943 379.8378L779.8743 379.8378L779.8743 380.7978L37.7943 380.7978z" stroke="none" fill="#000000" fill-rule="nonzero" /><path id="1119" transform="matrix(1 0 0 -1 0 594)" d="M37.7943 345.0378L779.8743 345.0378L779.8743 345.9968L37.7943 345.9968z" stroke="none" fill="#000000" fill-rule="nonzero" /><path id="1120" transform="matrix(1 0 0 -1 0 594)" d="M37.7943 318.8778L779.8743 318.8778L779.8743 319.8378L37.7943 319.8378z" stroke="none" fill="#000000" fill-rule="nonzero" /><path id="1121" transform="matrix(1 0 0 -1 0 594)" d="M37.7943 289.1178L779.8743 289.1178L779.8743 290.0778L37.7943 290.0778z" stroke="none" fill="#000000" fill-rule="nonzero" /><path id="1122" transform="matrix(1 0 0 -1 0 594)" d="M37.7943 262.9578L779.8743 262.9578L779.8743 263.9168L37.7943 263.9168z" stroke="none" fill="#000000" fill-rule="nonzero" /><path id="1123" transform="matrix(1 0 0 -1 0 594)" d="M37.7943 231.0378L779.8743 231.0378L779.8743 231.9978L37.7943 231.9978z" stroke="none" fill="#000000" fill-rule="nonzero" /><path id="1124" transform="matrix(1 0 0 -1 0 594)" d="M37.7943 197.6778L779.8743 197.6778L779.8743 198.6378L37.7943 198.6378z" stroke="none" fill="#000000" fill-rule="nonzero" /><path id="1125" transform="matrix(1 0 0 -1 0 594)" d="M37.7943 161.3178L779.8743 161.3178L779.8743 162.2778L37.7943 162.2778z" stroke="none" fill="#000000" fill-rule="nonzero" /><path id="1126" transform="matrix(1 0 0 -1 0 594)" d="M37.7943 125.6778L779.8743 125.6778L779.8743 126.6378L37.7943 126.6378z" stroke="none" fill="#000000" fill-rule="nonzero" /></g></g></svg>